<?xml version="1.0" encoding="UTF-8" standalone="no"?>
<svg
   xmlns:dc="http://purl.org/dc/elements/1.1/"
   xmlns:cc="http://creativecommons.org/ns#"
   xmlns:rdf="http://www.w3.org/1999/02/22-rdf-syntax-ns#"
   xmlns:svg="http://www.w3.org/2000/svg"
   xmlns="http://www.w3.org/2000/svg"
   viewBox="0 0 793.76001 1122.5601"
   height="1122.5601"
   width="793.76001"
   xml:space="preserve"
   id="svg2"
   version="1.1"><metadata
     id="metadata8"><rdf:RDF><cc:Work
         rdf:about=""><dc:format>image/svg+xml</dc:format><dc:type
           rdf:resource="http://purl.org/dc/dcmitype/StillImage" /></cc:Work></rdf:RDF></metadata><defs
     id="defs6"><clipPath
       id="clipPath56"
       clipPathUnits="userSpaceOnUse"><path
         style="clip-rule:evenodd"
         id="path54"
         d="M 8.871e-6,0 H 595.32001 V 841.92 H 8.871e-6 Z" /></clipPath><clipPath
       id="clipPath68"
       clipPathUnits="userSpaceOnUse"><path
         style="clip-rule:evenodd"
         id="path66"
         d="M 8.871e-6,0 H 595.32001 V 841.92 H 8.871e-6 Z" /></clipPath><clipPath
       id="clipPath76"
       clipPathUnits="userSpaceOnUse"><path
         style="clip-rule:evenodd"
         id="path74"
         d="M 8.871e-6,0 H 595.32001 V 841.92 H 8.871e-6 Z" /></clipPath><clipPath
       id="clipPath88"
       clipPathUnits="userSpaceOnUse"><path
         style="clip-rule:evenodd"
         id="path86"
         d="M 8.871e-6,0 H 595.32001 V 841.92 H 8.871e-6 Z" /></clipPath><clipPath
       id="clipPath98"
       clipPathUnits="userSpaceOnUse"><path
         style="clip-rule:evenodd"
         id="path96"
         d="M 8.871e-6,0 H 595.32001 V 841.92 H 8.871e-6 Z" /></clipPath><clipPath
       id="clipPath110"
       clipPathUnits="userSpaceOnUse"><path
         style="clip-rule:evenodd"
         id="path108"
         d="M 8.871e-6,0 H 595.32001 V 841.92 H 8.871e-6 Z" /></clipPath><clipPath
       id="clipPath122"
       clipPathUnits="userSpaceOnUse"><path
         style="clip-rule:evenodd"
         id="path120"
         d="M 8.871e-6,0 H 595.32001 V 841.92 H 8.871e-6 Z" /></clipPath><clipPath
       id="clipPath136"
       clipPathUnits="userSpaceOnUse"><path
         style="clip-rule:evenodd"
         id="path134"
         d="M 8.871e-6,0 H 595.32001 V 841.92 H 8.871e-6 Z" /></clipPath><clipPath
       id="clipPath150"
       clipPathUnits="userSpaceOnUse"><path
         style="clip-rule:evenodd"
         id="path148"
         d="M 8.871e-6,0 H 595.32001 V 841.92 H 8.871e-6 Z" /></clipPath><clipPath
       id="clipPath162"
       clipPathUnits="userSpaceOnUse"><path
         style="clip-rule:evenodd"
         id="path160"
         d="M 8.871e-6,0 H 595.32001 V 841.92 H 8.871e-6 Z" /></clipPath><clipPath
       id="clipPath176"
       clipPathUnits="userSpaceOnUse"><path
         style="clip-rule:evenodd"
         id="path174"
         d="M 8.871e-6,0 H 595.32001 V 841.92 H 8.871e-6 Z" /></clipPath><clipPath
       id="clipPath190"
       clipPathUnits="userSpaceOnUse"><path
         style="clip-rule:evenodd"
         id="path188"
         d="M 8.871e-6,0 H 595.32001 V 841.92 H 8.871e-6 Z" /></clipPath><clipPath
       id="clipPath204"
       clipPathUnits="userSpaceOnUse"><path
         style="clip-rule:evenodd"
         id="path202"
         d="M 8.871e-6,0 H 595.32001 V 841.92 H 8.871e-6 Z" /></clipPath><clipPath
       id="clipPath216"
       clipPathUnits="userSpaceOnUse"><path
         style="clip-rule:evenodd"
         id="path214"
         d="M 8.871e-6,0 H 595.32001 V 841.92 H 8.871e-6 Z" /></clipPath><clipPath
       id="clipPath228"
       clipPathUnits="userSpaceOnUse"><path
         style="clip-rule:evenodd"
         id="path226"
         d="M 8.871e-6,0 H 595.32001 V 841.92 H 8.871e-6 Z" /></clipPath><clipPath
       id="clipPath240"
       clipPathUnits="userSpaceOnUse"><path
         style="clip-rule:evenodd"
         id="path238"
         d="M 8.871e-6,0 H 595.32001 V 841.92 H 8.871e-6 Z" /></clipPath><clipPath
       id="clipPath248"
       clipPathUnits="userSpaceOnUse"><path
         style="clip-rule:evenodd"
         id="path246"
         d="M 8.871e-6,0 H 595.32001 V 841.92 H 8.871e-6 Z" /></clipPath><clipPath
       id="clipPath258"
       clipPathUnits="userSpaceOnUse"><path
         style="clip-rule:evenodd"
         id="path256"
         d="M 8.871e-6,0 H 595.32001 V 841.92 H 8.871e-6 Z" /></clipPath><clipPath
       id="clipPath272"
       clipPathUnits="userSpaceOnUse"><path
         style="clip-rule:evenodd"
         id="path270"
         d="M 8.871e-6,0 H 595.32001 V 841.92 H 8.871e-6 Z" /></clipPath><clipPath
       id="clipPath284"
       clipPathUnits="userSpaceOnUse"><path
         style="clip-rule:evenodd"
         id="path282"
         d="M 8.871e-6,0 H 595.32001 V 841.92 H 8.871e-6 Z" /></clipPath><clipPath
       id="clipPath296"
       clipPathUnits="userSpaceOnUse"><path
         style="clip-rule:evenodd"
         id="path294"
         d="M 8.871e-6,0 H 595.32001 V 841.92 H 8.871e-6 Z" /></clipPath><clipPath
       id="clipPath310"
       clipPathUnits="userSpaceOnUse"><path
         style="clip-rule:evenodd"
         id="path308"
         d="M 8.871e-6,0 H 595.32001 V 841.92 H 8.871e-6 Z" /></clipPath><clipPath
       id="clipPath322"
       clipPathUnits="userSpaceOnUse"><path
         style="clip-rule:evenodd"
         id="path320"
         d="M 8.871e-6,0 H 595.32001 V 841.92 H 8.871e-6 Z" /></clipPath><clipPath
       id="clipPath330"
       clipPathUnits="userSpaceOnUse"><path
         style="clip-rule:evenodd"
         id="path328"
         d="M 8.871e-6,0 H 595.32001 V 841.92 H 8.871e-6 Z" /></clipPath><clipPath
       id="clipPath344"
       clipPathUnits="userSpaceOnUse"><path
         style="clip-rule:evenodd"
         id="path342"
         d="M 8.871e-6,0 H 595.32001 V 841.92 H 8.871e-6 Z" /></clipPath><clipPath
       id="clipPath356"
       clipPathUnits="userSpaceOnUse"><path
         style="clip-rule:evenodd"
         id="path354"
         d="M 8.871e-6,0 H 595.32001 V 841.92 H 8.871e-6 Z" /></clipPath><clipPath
       id="clipPath370"
       clipPathUnits="userSpaceOnUse"><path
         style="clip-rule:evenodd"
         id="path368"
         d="M 8.871e-6,0 H 595.32001 V 841.92 H 8.871e-6 Z" /></clipPath><clipPath
       id="clipPath384"
       clipPathUnits="userSpaceOnUse"><path
         style="clip-rule:evenodd"
         id="path382"
         d="M 8.871e-6,0 H 595.32001 V 841.92 H 8.871e-6 Z" /></clipPath><clipPath
       id="clipPath396"
       clipPathUnits="userSpaceOnUse"><path
         style="clip-rule:evenodd"
         id="path394"
         d="M 8.871e-6,0 H 595.32001 V 841.92 H 8.871e-6 Z" /></clipPath><clipPath
       id="clipPath408"
       clipPathUnits="userSpaceOnUse"><path
         style="clip-rule:evenodd"
         id="path406"
         d="M 8.871e-6,0 H 595.32001 V 841.92 H 8.871e-6 Z" /></clipPath><clipPath
       id="clipPath420"
       clipPathUnits="userSpaceOnUse"><path
         style="clip-rule:evenodd"
         id="path418"
         d="M 8.871e-6,0 H 595.32001 V 841.92 H 8.871e-6 Z" /></clipPath><clipPath
       id="clipPath428"
       clipPathUnits="userSpaceOnUse"><path
         style="clip-rule:evenodd"
         id="path426"
         d="M 8.871e-6,0 H 595.32001 V 841.92 H 8.871e-6 Z" /></clipPath><clipPath
       id="clipPath436"
       clipPathUnits="userSpaceOnUse"><path
         style="clip-rule:evenodd"
         id="path434"
         d="M 8.871e-6,0 H 595.32001 V 841.92 H 8.871e-6 Z" /></clipPath><clipPath
       id="clipPath448"
       clipPathUnits="userSpaceOnUse"><path
         style="clip-rule:evenodd"
         id="path446"
         d="M 8.871e-6,0 H 595.32001 V 841.92 H 8.871e-6 Z" /></clipPath><clipPath
       id="clipPath456"
       clipPathUnits="userSpaceOnUse"><path
         style="clip-rule:evenodd"
         id="path454"
         d="M 8.871e-6,0 H 595.32001 V 841.92 H 8.871e-6 Z" /></clipPath><clipPath
       id="clipPath464"
       clipPathUnits="userSpaceOnUse"><path
         style="clip-rule:evenodd"
         id="path462"
         d="M 8.871e-6,0 H 595.32001 V 841.92 H 8.871e-6 Z" /></clipPath><clipPath
       id="clipPath472"
       clipPathUnits="userSpaceOnUse"><path
         style="clip-rule:evenodd"
         id="path470"
         d="M 8.871e-6,0 H 595.32001 V 841.92 H 8.871e-6 Z" /></clipPath><clipPath
       id="clipPath480"
       clipPathUnits="userSpaceOnUse"><path
         style="clip-rule:evenodd"
         id="path478"
         d="M 8.871e-6,0 H 595.32001 V 841.92 H 8.871e-6 Z" /></clipPath><clipPath
       id="clipPath488"
       clipPathUnits="userSpaceOnUse"><path
         style="clip-rule:evenodd"
         id="path486"
         d="M 8.871e-6,0 H 595.32001 V 841.92 H 8.871e-6 Z" /></clipPath><clipPath
       id="clipPath496"
       clipPathUnits="userSpaceOnUse"><path
         style="clip-rule:evenodd"
         id="path494"
         d="M 8.871e-6,0 H 595.32001 V 841.92 H 8.871e-6 Z" /></clipPath><clipPath
       id="clipPath504"
       clipPathUnits="userSpaceOnUse"><path
         style="clip-rule:evenodd"
         id="path502"
         d="M 8.871e-6,0 H 595.32001 V 841.92 H 8.871e-6 Z" /></clipPath><clipPath
       id="clipPath512"
       clipPathUnits="userSpaceOnUse"><path
         style="clip-rule:evenodd"
         id="path510"
         d="M 8.871e-6,0 H 595.32001 V 841.92 H 8.871e-6 Z" /></clipPath><clipPath
       id="clipPath520"
       clipPathUnits="userSpaceOnUse"><path
         style="clip-rule:evenodd"
         id="path518"
         d="M 8.871e-6,0 H 595.32001 V 841.92 H 8.871e-6 Z" /></clipPath><clipPath
       id="clipPath528"
       clipPathUnits="userSpaceOnUse"><path
         style="clip-rule:evenodd"
         id="path526"
         d="M 8.871e-6,0 H 595.32001 V 841.92 H 8.871e-6 Z" /></clipPath><clipPath
       id="clipPath536"
       clipPathUnits="userSpaceOnUse"><path
         style="clip-rule:evenodd"
         id="path534"
         d="M 8.871e-6,0 H 595.32001 V 841.92 H 8.871e-6 Z" /></clipPath><clipPath
       id="clipPath544"
       clipPathUnits="userSpaceOnUse"><path
         style="clip-rule:evenodd"
         id="path542"
         d="M 8.871e-6,0 H 595.32001 V 841.92 H 8.871e-6 Z" /></clipPath><clipPath
       id="clipPath556"
       clipPathUnits="userSpaceOnUse"><path
         style="clip-rule:evenodd"
         id="path554"
         d="M 8.871e-6,0 H 595.32001 V 841.92 H 8.871e-6 Z" /></clipPath><clipPath
       id="clipPath566"
       clipPathUnits="userSpaceOnUse"><path
         style="clip-rule:evenodd"
         id="path564"
         d="M 8.871e-6,0 H 595.32001 V 841.92 H 8.871e-6 Z" /></clipPath><clipPath
       id="clipPath576"
       clipPathUnits="userSpaceOnUse"><path
         style="clip-rule:evenodd"
         id="path574"
         d="M 8.871e-6,0 H 595.32001 V 841.92 H 8.871e-6 Z" /></clipPath><clipPath
       id="clipPath590"
       clipPathUnits="userSpaceOnUse"><path
         style="clip-rule:evenodd"
         id="path588"
         d="M 8.871e-6,0 H 595.32001 V 841.92 H 8.871e-6 Z" /></clipPath><clipPath
       id="clipPath602"
       clipPathUnits="userSpaceOnUse"><path
         style="clip-rule:evenodd"
         id="path600"
         d="M 8.871e-6,0 H 595.32001 V 841.92 H 8.871e-6 Z" /></clipPath></defs><g
     transform="matrix(1.3333333,0,0,-1.3333333,0,1122.56)"
     id="g10"><path
       id="path12"
       style="fill:#000000;fill-opacity:1;fill-rule:nonzero;stroke:none"
       d="m 80.795,398.36 v -0.7 0 -0.74 l 0.001,-0.04 0.585,-16.18 0.007,-0.08 1.263,-9.98 v 0 l 1.395,-11.22 -0.006,0.07 0.629,-11.29 -0.002,0.06 -0.074,-20.64 c -0.002,-0.54 0.432,-0.98 0.969,-0.98 0.538,0 0.976,0.43 0.979,0.97 l 0.039,6.49 v 0.03 l -0.321,19.08 -0.004,0.07 -0.185,2.05 -0.005,0.04 -0.274,2.03 -0.006,0.04 -0.363,2.02 -0.009,0.05 -0.45,2 -0.01,0.04 -0.538,1.98 -0.012,0.04 -0.623,1.96 -0.014,0.04 -0.708,1.92 -0.025,0.06 -1.781,3.99 0.004,-0.01 -2.579,5.93 0.028,-0.07 -0.426,1.24 0.013,-0.04 -0.371,1.25 0.021,-0.08 -0.772,3.79 0.014,-0.09 -0.195,1.78 0.004,-0.04 -0.117,1.79 0.002,-0.05 -0.039,1.79 v -0.04 l 0.039,1.79 -0.003,-0.06 0.334,3.73 -0.007,-0.06 0.196,1.31 -0.007,-0.04 0.252,1.3 -0.009,-0.05 0.31,1.29 -0.011,-0.04 0.365,1.27 -0.013,-0.04 0.42,1.26 -0.014,-0.04 0.474,1.23 -0.027,-0.06 1.285,2.74 -0.049,-0.09 0.414,0.68 -0.023,-0.03 0.444,0.66 -0.024,-0.03 0.472,0.64 -0.026,-0.03 0.5,0.62 -0.028,-0.03 0.527,0.6 -0.029,-0.03 0.553,0.58 -0.03,-0.03 0.577,0.56 -0.032,-0.03 0.601,0.53 -0.032,-0.03 0.623,0.5 -0.034,-0.02 0.645,0.47 -0.063,-0.04 1.725,1.07 -0.058,-0.03 1.201,0.64 -0.038,-0.02 1.229,0.58 -0.039,-0.02 1.252,0.54 -0.039,-0.02 1.275,0.48 -0.041,-0.02 1.294,0.42 -0.068,-0.02 3.111,0.76 -0.05,-0.01 0.695,0.14 -0.042,-0.01 0.7,0.1 -0.042,-0.01 0.704,0.08 -0.043,-0.01 0.707,0.04 h -0.043 l 0.707,0.01 h -0.042 l 0.706,-0.02 h -0.04 l 0.7,-0.05 h -0.04 l 0.7,-0.08 h -0.04 l 0.7,-0.11 -0.07,0.01 1.63,-0.39 -0.08,0.03 0.57,-0.19 -0.04,0.02 0.55,-0.21 -0.04,0.01 0.55,-0.23 -0.04,0.02 0.53,-0.26 -0.04,0.02 0.53,-0.28 -0.04,0.02 0.51,-0.3 -0.04,0.02 0.5,-0.32 -0.04,0.03 0.48,-0.35 -0.03,0.03 0.47,-0.37 -0.04,0.03 0.45,-0.39 -0.03,0.03 0.43,-0.4 -0.05,0.05 0.99,-1.08 -0.03,0.04 0.15,-0.19 -0.02,0.03 0.15,-0.19 -0.03,0.03 0.14,-0.2 -0.02,0.03 0.13,-0.21 -0.02,0.04 0.12,-0.22 -0.02,0.04 0.11,-0.22 -0.02,0.04 0.1,-0.22 -0.01,0.03 0.09,-0.22 -0.02,0.04 0.08,-0.24 -0.01,0.04 0.07,-0.23 -0.01,0.04 0.06,-0.24 -0.01,0.04 0.05,-0.24 v 0.04 l 0.04,-0.24 -0.01,0.08 0.05,-0.68 v 0.11 l -0.02,-0.45 0.01,0.04 -0.04,-0.45 0.01,0.04 -0.06,-0.45 0.01,0.04 -0.07,-0.45 v 0.04 l -0.09,-0.44 0.01,0.04 -0.11,-0.44 0.02,0.07 -0.36,-1.07 v 0.01 l -0.6,-1.7 0.01,0.04 -0.68,-1.67 0.02,0.04 -0.75,-1.64 0.01,0.04 -0.82,-1.6 0.04,0.06 -2.52,-4.07 0.08,0.1 -0.6,-0.73 0.03,0.04 -0.63,-0.71 0.03,0.03 -0.65,-0.67 0.03,0.03 -0.69,-0.65 0.06,0.05 -1.91,-1.54 0.05,0.04 -1.449,-1.03 0.067,0.04 -3.813,-2.25 -0.198,-0.16 -0.434,-0.45 c -0.208,-0.22 -0.256,-0.55 -0.121,-0.81 0.136,-0.27 0.425,-0.43 0.723,-0.39 l 0.622,0.08 0.346,0.12 3.837,2.21 0.06,0.04 1.47,0.99 0.07,0.05 1.91,1.54 0.06,0.05 0.68,0.65 0.03,0.03 0.66,0.68 0.02,0.03 0.63,0.7 0.03,0.03 0.59,0.74 0.07,0.1 2.52,4.07 0.03,0.07 0.83,1.6 0.02,0.04 0.75,1.64 0.02,0.04 0.68,1.67 0.01,0.04 0.61,1.7 v 0.01 l 0.37,1.08 0.02,0.07 0.11,0.44 0.01,0.04 0.09,0.45 0.01,0.04 0.07,0.45 0.01,0.04 0.05,0.45 0.01,0.04 0.03,0.46 v 0.04 l 0.02,0.45 -0.01,0.11 -0.05,0.68 -0.01,0.08 -0.04,0.24 -0.01,0.04 -0.05,0.24 -0.01,0.04 -0.06,0.24 -0.01,0.04 -0.07,0.24 -0.02,0.04 -0.08,0.23 -0.01,0.04 -0.1,0.23 -0.01,0.04 -0.11,0.23 -0.01,0.03 -0.12,0.22 -0.02,0.04 -0.12,0.22 -0.02,0.03 -0.13,0.21 -0.02,0.04 -0.14,0.2 -0.03,0.04 -0.14,0.19 -0.03,0.04 -0.16,0.19 -0.03,0.04 -0.99,1.08 -0.05,0.05 -0.44,0.4 -0.03,0.03 -0.45,0.39 -0.03,0.02 -0.47,0.37 -0.03,0.02 -0.48,0.35 -0.04,0.02 -0.49,0.33 -0.04,0.02 -0.51,0.3 -0.04,0.02 -0.52,0.28 -0.04,0.02 -0.53,0.26 -0.04,0.01 -0.54,0.24 -0.04,0.01 -0.56,0.21 -0.04,0.01 -0.56,0.19 -0.08,0.02 -1.63,0.39 -0.07,0.01 -0.69,0.12 h -0.05 l -0.7,0.09 h -0.04 l -0.71,0.05 -0.04,0.01 -0.706,0.02 h -0.043 l -0.707,-0.01 h -0.043 l -0.706,-0.04 -0.042,-0.01 -0.704,-0.07 h -0.042 l -0.7,-0.1 -0.042,-0.01 -0.695,-0.13 -0.051,-0.01 -3.111,-0.77 -0.069,-0.01 -1.294,-0.42 -0.04,-0.02 -1.274,-0.47 -0.04,-0.02 -1.253,-0.53 -0.038,-0.02 -1.229,-0.58 -0.038,-0.02 -1.201,-0.64 -0.058,-0.03 -1.725,-1.08 -0.063,-0.04 -0.644,-0.48 -0.034,-0.02 -0.623,-0.5 -0.032,-0.03 -0.601,-0.53 -0.031,-0.03 -0.577,-0.55 -0.03,-0.03 -0.553,-0.58 -0.029,-0.03 -0.526,-0.61 -0.027,-0.03 -0.5,-0.62 -0.026,-0.04 -0.472,-0.64 -0.024,-0.04 -0.444,-0.66 -0.023,-0.04 -0.413,-0.68 -0.049,-0.1 -1.285,-2.74 -0.027,-0.06 -0.474,-1.24 -0.015,-0.04 -0.42,-1.25 -0.013,-0.04 -0.364,-1.27 -0.011,-0.04 -0.309,-1.29 -0.009,-0.04 -0.253,-1.3 -0.007,-0.04 -0.196,-1.31 -0.007,-0.06 -0.334,-3.73 -0.004,-0.06 -0.04,-1.8 v -0.04 l 0.039,-1.79 0.002,-0.04 0.117,-1.79 0.004,-0.04 0.194,-1.78 0.014,-0.09 0.772,-3.79 0.02,-0.08 0.371,-1.26 0.013,-0.04 0.426,-1.24 0.028,-0.07 2.579,-5.93 0.004,-0.01 1.781,-3.98 -0.025,0.06 0.708,-1.93 -0.014,0.04 0.623,-1.95 -0.012,0.04 0.538,-1.98 -0.01,0.04 0.45,-2 -0.008,0.04 0.362,-2.02 -0.006,0.04 0.274,-2.03 -0.005,0.04 0.186,-2.04 -0.004,0.07 0.32,-19.09 v 0.03 l -0.038,-6.5 c -0.003,-0.35 0.181,-0.67 0.482,-0.85 0.301,-0.17 0.673,-0.17 0.975,0 0.303,0.17 0.49,0.49 0.491,0.84 l 0.075,20.64 -0.001,0.06 -0.629,11.28 -0.006,0.07 -1.395,11.22 -10e-4,0.01 -1.262,9.97 0.007,-0.09 -0.586,16.18 0.001,-0.03 v 0.74 0 0.7 c 0,0.54 -0.436,0.97 -0.974,0.97 -0.539,0 -0.975,-0.43 -0.975,-0.97 z" /><path
       id="path14"
       style="fill:#000000;fill-opacity:1;fill-rule:nonzero;stroke:none"
       d="m 135.09,395.46 h -0.01 l -0.18,-0.01 -0.39,-0.07 c -0.42,-0.08 -0.75,-0.42 -0.8,-0.85 l -0.05,-0.5 -0.01,-0.19 0.46,-5.8 v -0.01 l 0.37,-4.19 v 0.01 l 1.59,-20.14 v 0 l 1.15,-14.21 v -0.01 l 0.11,-1.23 v -0.01 l 0.09,-0.88 v 0.05 l 0.05,-0.88 v 0.06 l -0.02,-1.92 0.16,0.53 v -0.01 l 0.03,0.05 v -0.01 l 0.02,0.03 -0.01,-0.01 0.03,0.04 v -0.01 l 0.03,0.04 -0.01,-0.01 0.03,0.03 v 0 l 0.03,0.03 v -0.01 l 0.02,0.02 v 0 l 0.04,0.03 -0.01,-0.01 0.03,0.03 v -0.01 l 0.04,0.03 h -0.01 l 0.03,0.01 h -0.01 l 0.05,0.02 h -0.01 l 0.04,0.02 -0.01,-0.01 0.04,0.02 v 0 l 0.03,0.01 v 0 l 0.04,0.01 h -0.01 l 0.04,0.01 v 0 l 0.04,0.01 h -0.01 0.04 v 0 l 0.04,0.01 h -0.01 0.04 v 0 h 0.04 -0.01 0.05 -0.01 0.04 -0.01 0.04 v 0 l 0.04,-0.01 v 0 h 0.04 -0.01 l 0.04,-0.01 h -0.01 l 0.05,-0.01 h -0.01 l 0.04,-0.01 h -0.01 l 0.05,-0.02 -0.01,0.01 0.03,-0.02 v 0.01 l 0.04,-0.03 -0.01,0.01 0.04,-0.02 -0.01,0.01 0.04,-0.03 -0.01,0.01 0.04,-0.03 v 0.01 l 0.03,-0.03 -0.01,0.01 0.03,-0.03 v 0.01 l 0.03,-0.03 v 0 l 0.03,-0.03 -0.01,0.01 0.04,-0.03 h -0.01 l 0.03,-0.03 v 0 l 0.04,-0.05 -0.01,0.01 -0.25,0.24 -0.34,0.22 0.11,-0.09 -0.4,0.36 0.03,-0.03 -0.39,0.37 0.03,-0.03 -0.37,0.39 0.03,-0.03 -0.36,0.41 0.03,-0.03 -0.34,0.42 0.03,-0.04 -0.32,0.44 0.02,-0.04 -0.3,0.45 0.03,-0.03 -0.28,0.46 0.04,-0.07 -0.69,1.37 0.03,-0.06 -0.75,1.81 0.03,-0.06 -1.28,3.77 0.01,-0.02 -0.08,0.25 v -0.01 l -0.92,3.1 0.01,-0.04 -0.79,3.14 0.01,-0.04 -0.65,3.17 0.01,-0.04 -0.52,3.2 0.01,-0.04 -0.37,3.22 v -0.07 l -0.32,7.57 0.01,-0.07 0.04,1.52 -0.01,-0.07 0.38,3.64 -0.01,-0.06 0.09,0.51 -0.01,-0.04 0.11,0.51 -0.01,-0.04 0.14,0.51 -0.01,-0.04 0.15,0.5 -0.01,-0.04 0.18,0.49 -0.02,-0.04 0.2,0.49 -0.02,-0.04 0.23,0.47 -0.04,-0.07 0.74,1.31 -0.07,-0.11 0.47,0.62 -0.02,-0.03 0.5,0.6 -0.03,-0.03 0.52,0.57 -0.03,-0.03 0.55,0.56 -0.03,-0.03 0.57,0.53 -0.05,-0.05 1.42,1.13 -0.08,-0.05 4.81,3.1 -0.04,-0.02 1.2,0.69 -0.04,-0.02 1.24,0.65 -0.04,-0.02 1.26,0.58 -0.04,-0.01 1.28,0.53 -0.04,-0.02 1.31,0.48 -0.04,-0.01 1.33,0.41 -0.08,-0.02 3.36,0.79 -0.07,-0.02 0.9,0.14 h -0.05 l 0.91,0.09 h -0.05 l 0.91,0.06 h -0.04 l 0.91,0.02 h -0.05 l 0.91,-0.02 h -0.04 l 0.9,-0.06 h -0.04 l 0.9,-0.09 h -0.04 l 0.9,-0.14 -0.04,0.01 0.89,-0.18 -0.05,0.01 0.89,-0.21 -0.08,0.02 2.52,-0.86 -0.08,0.04 0.64,-0.29 -0.04,0.02 0.64,-0.32 -0.04,0.02 0.62,-0.35 -0.04,0.02 0.6,-0.37 -0.03,0.02 0.58,-0.4 -0.03,0.03 0.56,-0.43 -0.03,0.03 0.55,-0.45 -0.05,0.04 1.11,-1.04 -0.05,0.05 0.65,-0.71 -0.03,0.04 0.62,-0.74 -0.03,0.04 0.59,-0.76 -0.03,0.03 0.55,-0.78 -0.04,0.07 1.34,-2.29 -0.04,0.08 0.68,-1.46 -0.01,0.04 0.62,-1.49 -0.02,0.04 0.56,-1.51 -0.02,0.04 0.49,-1.54 -0.01,0.05 0.42,-1.56 -0.01,0.04 0.35,-1.57 -0.01,0.06 0.51,-3.26 -0.01,0.04 0.13,-1.03 -0.01,0.04 0.08,-1.04 v 0.04 l 0.03,-1.03 v 0.04 l -0.01,-1.04 v 0.04 l -0.06,-1.04 0.01,0.07 -0.25,-2.07 0.01,0.07 -0.12,-0.58 0.01,0.04 -0.14,-0.58 0.01,0.05 -0.16,-0.57 0.01,0.04 -0.19,-0.57 0.02,0.04 -0.22,-0.55 0.02,0.04 -0.24,-0.54 0.02,0.04 -0.26,-0.54 0.02,0.04 -0.29,-0.52 0.02,0.04 -0.3,-0.51 0.02,0.04 -0.33,-0.5 0.04,0.06 -0.81,-1.06 0.06,0.07 -0.85,-0.91 0.03,0.03 -0.89,-0.87 0.03,0.03 -0.92,-0.84 0.06,0.05 -2.55,-1.96 0.08,0.05 -5.94,-3.76 0.02,0.02 -1.26,-0.76 0.02,0.01 -13.43,-7.61 0.02,0.01 -4.37,-2.37 -0.3,-0.26 -0.25,-0.34 c -0.16,-0.21 -0.19,-0.49 -0.07,-0.73 0.11,-0.24 0.35,-0.39 0.61,-0.4 l 0.43,-0.02 c 0.16,0 0.32,0.03 0.46,0.11 l 4.4,2.29 0.03,0.02 13.43,7.6 0.02,0.01 1.27,0.76 0.02,0.02 5.93,3.76 0.07,0.05 2.55,1.96 0.06,0.05 0.92,0.83 0.03,0.03 0.89,0.87 0.03,0.03 0.84,0.92 0.06,0.06 0.82,1.06 0.04,0.05 0.32,0.5 0.03,0.03 0.3,0.51 0.02,0.04 0.29,0.52 0.02,0.03 0.26,0.54 0.02,0.04 0.23,0.54 0.02,0.04 0.21,0.55 0.02,0.04 0.19,0.56 0.01,0.04 0.17,0.57 0.01,0.05 0.14,0.57 0.01,0.04 0.11,0.59 0.01,0.07 0.25,2.06 0.01,0.06 0.06,1.04 v 0.05 l 0.01,1.03 v 0.05 l -0.03,1.04 -0.01,0.04 -0.07,1.04 -0.01,0.04 -0.12,1.03 -0.01,0.03 -0.5,3.26 -0.02,0.06 -0.35,1.58 -0.01,0.04 -0.42,1.55 -0.01,0.05 -0.49,1.53 -0.01,0.04 -0.56,1.52 -0.01,0.04 -0.63,1.48 -0.01,0.04 -0.69,1.46 -0.04,0.08 -1.34,2.28 -0.04,0.07 -0.56,0.78 -0.02,0.04 -0.59,0.76 -0.02,0.03 -0.62,0.73 -0.03,0.03 -0.65,0.71 -0.05,0.05 -1.11,1.04 -0.05,0.05 -0.55,0.45 -0.03,0.02 -0.57,0.43 -0.03,0.02 -0.59,0.4 -0.03,0.02 -0.6,0.38 -0.04,0.02 -0.62,0.35 -0.04,0.02 -0.63,0.32 -0.04,0.01 -0.64,0.3 -0.09,0.03 -2.53,0.86 -0.08,0.02 -0.88,0.22 h -0.04 l -0.89,0.18 -0.05,0.01 -0.89,0.14 h -0.04 l -0.91,0.1 -0.04,0.01 -0.9,0.05 -0.05,0.01 -0.9,0.02 h -0.05 l -0.9,-0.02 h -0.05 l -0.9,-0.06 -0.04,-0.01 -0.91,-0.1 h -0.04 l -0.9,-0.14 -0.07,-0.01 -3.36,-0.79 -0.07,-0.02 -1.33,-0.42 -0.04,-0.01 -1.3,-0.47 -0.04,-0.02 -1.29,-0.53 -0.04,-0.02 -1.26,-0.59 -0.03,-0.02 -1.24,-0.64 -0.03,-0.02 -1.21,-0.69 -0.04,-0.03 -4.81,-3.11 -0.08,-0.05 -1.42,-1.14 -0.05,-0.04 -0.57,-0.53 -0.03,-0.03 -0.55,-0.56 -0.03,-0.03 -0.53,-0.57 -0.02,-0.04 -0.5,-0.6 -0.03,-0.03 -0.47,-0.62 -0.07,-0.11 -0.75,-1.3 -0.03,-0.08 -0.22,-0.47 -0.02,-0.04 -0.2,-0.49 -0.02,-0.04 -0.17,-0.49 -0.02,-0.04 -0.15,-0.5 -0.02,-0.04 -0.13,-0.51 -0.01,-0.04 -0.11,-0.51 -0.01,-0.04 -0.09,-0.52 -0.01,-0.07 -0.37,-3.64 -0.01,-0.07 -0.04,-1.52 v -0.07 l 0.32,-7.58 v -0.07 l 0.37,-3.22 0.01,-0.04 0.51,-3.2 0.01,-0.04 0.65,-3.17 0.01,-0.04 0.79,-3.15 0.01,-0.04 0.93,-3.1 v -0.01 l 0.08,-0.25 v -0.02 l 1.28,-3.77 0.02,-0.06 0.75,-1.81 0.03,-0.06 0.68,-1.38 0.04,-0.07 0.28,-0.46 0.02,-0.04 0.3,-0.45 0.02,-0.03 0.32,-0.44 0.03,-0.03 0.34,-0.42 0.02,-0.03 0.36,-0.41 0.03,-0.03 0.37,-0.39 0.03,-0.03 0.39,-0.38 0.03,-0.03 0.41,-0.35 0.11,-0.09 0.34,-0.22 -0.25,0.24 0.01,-0.02 0.04,-0.05 0.01,-0.01 0.03,-0.03 v -0.01 l 0.04,-0.03 v 0 l 0.03,-0.03 h 0.01 l 0.03,-0.03 0.01,-0.01 0.03,-0.02 v -0.01 l 0.04,-0.02 v 0 l 0.04,-0.03 h 0.01 l 0.04,-0.03 v 0 l 0.03,-0.02 h 0.01 l 0.04,-0.02 h 0.01 l 0.03,-0.02 h 0.01 l 0.04,-0.01 0.01,-0.01 0.04,-0.01 h 0.01 l 0.04,-0.01 h 0.01 l 0.04,-0.01 v 0 l 0.04,-0.01 h 0.01 l 0.04,-0.01 h 0.01 0.04 0.01 l 0.04,-0.01 h 0.01 0.04 0.01 l 0.04,0.01 h 0.01 0.04 0.01 l 0.04,0.01 h 0.01 0.04 l 0.01,0.01 0.04,0.01 v 0 l 0.04,0.01 h 0.01 l 0.04,0.01 0.01,0.01 0.04,0.01 v 0 l 0.05,0.02 v 0 l 0.04,0.02 v 0 l 0.05,0.02 v 0.01 l 0.03,0.01 0.01,0.01 0.04,0.02 0.01,0.01 0.03,0.02 v 0 l 0.04,0.03 0.01,0.01 0.02,0.02 h 0.01 l 0.03,0.03 0.01,0.01 0.03,0.03 v 0 l 0.03,0.04 h 0.01 l 0.03,0.04 v 0 l 0.02,0.03 0.01,0.01 0.02,0.04 h 0.01 c 0.1,0.16 0.16,0.34 0.16,0.53 l 0.02,1.93 v 0.06 l -0.05,0.88 -0.01,0.04 -0.09,0.88 v -0.02 l -0.11,1.23 v -0.01 l -1.15,14.22 v -0.01 L 136.42,384 v 0.01 l -0.37,4.19 v -0.01 l -0.46,5.8 v -0.19 l 0.06,0.51 -0.79,-0.85 0.39,0.07 -0.17,-0.01 h 0.01 c 0.54,0 0.97,0.43 0.97,0.97 0,0.54 -0.43,0.97 -0.97,0.97 z" /><path
       id="path16"
       style="fill:#000000;fill-opacity:1;fill-rule:nonzero;stroke:none"
       d="m 195.42,386.94 0.05,-1.35 0.01,-0.08 0.49,-4.01 0.01,-0.03 0.3,-1.94 v 0.01 l 0.07,-0.51 v 0.01 l 2.24,-17.64 v 0.08 l 0.73,-17.9 v 0.05 -0.38 0.07 l -0.07,-0.88 c -0.04,-0.44 0.22,-0.84 0.63,-1 0.41,-0.15 0.87,0 1.13,0.35 0.25,0.36 0.24,0.84 -0.04,1.18 l -0.22,0.28 0.09,-0.14 -0.86,1.58 0.02,-0.04 -0.8,1.62 0.03,-0.08 -1.91,4.89 0.01,-0.02 -0.83,2.25 -0.01,0.04 -10.07,24.34 -0.04,0.08 -0.17,0.33 0.02,-0.04 -0.16,0.34 0.02,-0.04 -0.15,0.35 0.02,-0.04 -0.13,0.35 0.01,-0.04 -0.11,0.36 0.01,-0.04 -0.09,0.36 0.01,-0.04 -0.09,0.37 0.01,-0.05 -0.06,0.37 v -0.04 l -0.04,0.37 v -0.04 l -0.03,0.38 v -0.05 l -0.02,0.38 0.01,-0.04 v 0.37 l -0.01,-0.04 0.02,0.37 v -0.04 l 0.03,0.37 v -0.04 l 0.05,0.37 -0.01,-0.04 0.06,0.37 v -0.04 l 0.08,0.37 -0.02,-0.08 0.29,0.95 -0.04,-0.09 0.44,1.03 -0.02,-0.04 0.49,1.02 -0.02,-0.04 0.52,1 -0.02,-0.04 0.57,0.97 -0.02,-0.03 0.61,0.94 -0.02,-0.03 0.65,0.92 -0.03,-0.04 0.69,0.89 -0.02,-0.03 0.73,0.86 -0.05,-0.06 1.98,2.01 -0.04,-0.05 2.66,2.36 -0.05,-0.05 6.62,5.03 -0.06,-0.04 14.99,9.65 -0.06,-0.04 4.85,2.65 -0.06,-0.03 11.33,5.18 -0.08,-0.03 0.53,0.19 -0.39,-0.06 h 0.02 c 0.42,-0.02 0.81,0.22 0.97,0.62 0.15,0.39 0.03,0.84 -0.3,1.11 -0.33,0.26 -0.79,0.29 -1.14,0.05 l -0.23,-0.14 c -0.38,-0.26 -0.52,-0.75 -0.33,-1.17 0.19,-0.41 0.65,-0.63 1.1,-0.51 l 0.26,0.08 c 0.34,0.1 0.61,0.38 0.68,0.73 0.08,0.35 -0.05,0.72 -0.33,0.95 l -0.01,0.01 c -0.27,0.23 -0.64,0.29 -0.97,0.17 l -0.53,-0.2 -0.07,-0.03 -11.32,-5.18 -0.06,-0.03 -4.85,-2.65 -0.06,-0.03 -15,-9.65 -0.06,-0.05 -6.62,-5.03 -0.05,-0.04 -2.67,-2.35 -0.05,-0.05 -1.99,-2.01 -0.05,-0.05 -0.73,-0.86 -0.02,-0.03 -0.7,-0.89 -0.02,-0.03 -0.65,-0.92 -0.03,-0.04 -0.61,-0.94 -0.02,-0.04 -0.57,-0.97 -0.02,-0.04 -0.53,-1 -0.01,-0.03 -0.49,-1.02 -0.01,-0.04 -0.44,-1.04 -0.04,-0.09 -0.29,-0.95 -0.02,-0.07 -0.08,-0.37 -0.01,-0.04 -0.06,-0.37 -0.01,-0.04 -0.05,-0.37 v -0.05 l -0.03,-0.37 -0.01,-0.04 -0.01,-0.38 v -0.04 -0.37 -0.05 l 0.01,-0.37 0.01,-0.04 0.03,-0.38 v -0.04 l 0.05,-0.37 0.01,-0.04 0.06,-0.37 0.01,-0.04 0.08,-0.37 0.01,-0.04 0.1,-0.36 0.01,-0.05 0.11,-0.35 0.02,-0.04 0.13,-0.36 0.01,-0.04 0.15,-0.34 0.01,-0.04 0.16,-0.34 0.02,-0.04 0.17,-0.33 -0.03,0.07 10.07,-24.34 -0.02,0.04 0.83,-2.25 0.01,-0.02 1.91,-4.89 0.03,-0.07 0.8,-1.62 0.02,-0.04 0.87,-1.58 0.09,-0.15 0.23,-0.27 c 0.25,-0.31 0.66,-0.44 1.04,-0.32 0.38,0.12 0.65,0.45 0.69,0.85 l 0.07,0.88 0.01,0.07 v 0.38 0.05 l -0.73,17.9 -0.01,0.09 -2.25,17.64 v 0.01 l -0.07,0.52 v 0.01 l -0.31,1.94 0.01,-0.03 -0.5,4.01 0.01,-0.09 -0.05,1.35 c -0.02,0.54 -0.47,0.96 -1.01,0.94 -0.54,-0.02 -0.96,-0.47 -0.94,-1.01 z" /><path
       id="path18"
       style="fill:#000000;fill-opacity:1;fill-rule:nonzero;stroke:none"
       d="m 192.07,359.34 v 0 c -0.3,-0.23 -0.45,-0.61 -0.37,-0.98 0.07,-0.36 0.35,-0.66 0.71,-0.75 v 0 c 0.32,-0.08 0.65,0 0.89,0.22 l 0.08,0.07 0.13,0.14 0.18,0.24 -0.09,-0.1 0.45,0.44 -0.03,-0.03 0.82,0.76 -0.04,-0.04 1.51,1.23 -0.02,-0.01 2.39,1.85 v 0 l 3.08,2.37 0.01,0.01 3.29,2.61 v 0 l 3.16,2.5 0.01,0.01 2.8,2.24 -0.01,-0.01 2.31,1.82 -0.02,-0.02 1.82,1.37 -0.01,-0.01 1.36,0.97 0.03,0.02 0.89,0.7 c 0.11,0.09 0.21,0.21 0.27,0.34 l 0.27,0.55 c 0.12,0.26 0.08,0.56 -0.1,0.77 -0.19,0.22 -0.48,0.3 -0.75,0.22 l -0.58,-0.18 -0.31,-0.17 -0.89,-0.69 0.03,0.02 -1.36,-0.97 -0.01,-0.01 -1.83,-1.36 -0.02,-0.02 -2.3,-1.81 -0.01,-0.01 -2.8,-2.24 v 0 l -3.16,-2.5 v 0 l -3.29,-2.61 0.01,0.01 -3.08,-2.37 v -0.01 l -2.4,-1.85 -0.02,-0.02 -1.51,-1.23 -0.04,-0.04 -0.82,-0.75 -0.02,-0.03 -0.45,-0.44 -0.09,-0.1 -0.19,-0.24 0.13,0.14 -0.08,-0.07 0.89,0.21 v 0 c -0.44,0.11 -0.9,-0.1 -1.11,-0.5 -0.2,-0.4 -0.1,-0.9 0.24,-1.19 0.35,-0.29 0.85,-0.31 1.22,-0.03 v 0 c 0.43,0.32 0.51,0.93 0.19,1.36 -0.32,0.43 -0.93,0.52 -1.36,0.2 z" /><path
       id="path20"
       style="fill:#000000;fill-opacity:1;fill-rule:nonzero;stroke:none"
       d="m 135.99,290.62 0.01,-0.54 0.01,-0.12 0.11,-0.74 0.02,-0.08 0.47,-2.01 0.01,-0.01 0.42,-1.68 -0.01,0.06 3.68,-19.99 -0.01,0.04 2.82,-20.23 h -0.01 l 1.07,-8.06 0.01,-0.04 1.88,-10.72 v -0.01 l 0.84,-4.35 0.02,-0.08 0.11,-0.41 c 0.1,-0.33 0.36,-0.58 0.69,-0.65 l 0.09,-0.02 c 0.17,-0.04 0.35,-0.01 0.5,0.08 l 0.08,0.04 c 0.31,0.18 0.49,0.51 0.47,0.87 l -0.03,0.42 -0.02,0.12 -0.83,4.35 v -0.02 l -1.88,10.71 0.01,-0.04 -1.07,8.07 v 0.01 l -2.82,20.23 v 0.04 l -3.68,20 -0.02,0.06 -0.42,1.68 v -0.02 l -0.47,2.01 0.01,-0.08 -0.11,0.74 0.01,-0.12 -0.01,0.54 c -0.02,0.53 -0.47,0.96 -1,0.94 -0.54,-0.01 -0.96,-0.45 -0.95,-0.99 z" /><path
       id="path22"
       style="fill:#000000;fill-opacity:1;fill-rule:nonzero;stroke:none"
       d="m 171.83,296.37 v 0 c -0.4,0.21 -0.9,0.1 -1.19,-0.25 -0.28,-0.35 -0.29,-0.86 -0.01,-1.22 l 0.28,-0.36 -0.1,0.16 0.32,-0.62 -0.02,0.04 0.3,-0.64 -0.02,0.04 0.26,-0.65 -0.01,0.04 0.23,-0.65 -0.02,0.07 0.5,-1.89 v 0.01 l 0.1,-0.38 -0.01,0.05 1.96,-9.72 -0.01,0.06 1.32,-9.86 v 0.01 l 0.36,-2.86 v 0.01 l 0.66,-5.61 0.01,-0.03 2.68,-17.76 0.03,-0.13 1.16,-3.89 0.01,-0.02 0.88,-2.8 v 0 l 0.09,-0.28 -0.01,0.05 0.07,-0.28 -0.01,0.04 0.06,-0.28 -0.01,0.04 0.05,-0.28 v 0.04 l 0.03,-0.29 v 0.04 l 0.03,-0.28 -0.01,0.04 0.01,-0.29 v 0.08 l -0.03,-0.79 0.03,0.17 -0.02,-0.06 c -0.06,-0.31 0.02,-0.62 0.24,-0.85 0.21,-0.22 0.52,-0.32 0.83,-0.27 l 0.06,0.01 c 0.46,0.08 0.79,0.46 0.81,0.92 l 0.03,0.8 v 0.08 l -0.01,0.28 v 0.05 l -0.03,0.28 v 0.04 l -0.04,0.29 -0.01,0.04 -0.05,0.29 v 0.04 l -0.07,0.28 -0.01,0.04 -0.07,0.28 -0.01,0.04 -0.09,0.27 v 0 l -0.88,2.81 v -0.02 l -1.16,3.89 0.03,-0.13 -2.69,17.76 0.01,-0.03 -0.67,5.61 v 0 l -0.35,2.86 v 0.01 l -1.33,9.86 -0.01,0.06 -1.96,9.73 -0.01,0.05 -0.1,0.38 v 0 l -0.51,1.9 -0.02,0.07 -0.24,0.66 -0.01,0.04 -0.27,0.65 -0.01,0.04 -0.3,0.63 -0.01,0.04 -0.32,0.62 -0.1,0.16 -0.29,0.35 c -0.24,0.32 -0.66,0.45 -1.04,0.34 -0.38,-0.12 -0.66,-0.45 -0.69,-0.85 -0.04,-0.4 0.17,-0.78 0.53,-0.96 v 0 c 0.48,-0.24 1.07,-0.04 1.31,0.44 0.24,0.48 0.04,1.06 -0.44,1.3 z" /><path
       id="path24"
       style="fill:#000000;fill-opacity:1;fill-rule:nonzero;stroke:none"
       d="m 140.9,246.35 0.11,0.02 0.04,0.01 0.11,0.03 0.04,0.01 0.1,0.03 0.04,0.01 0.1,0.04 0.04,0.02 0.11,0.04 0.03,0.01 0.1,0.05 0.04,0.01 0.1,0.05 0.04,0.02 0.09,0.06 0.04,0.02 0.09,0.05 0.04,0.03 0.09,0.06 0.06,0.04 0.23,0.19 -0.05,-0.04 0.31,0.22 -0.04,-0.03 3.16,1.97 -0.07,-0.03 8.47,4.42 -0.07,-0.03 3.65,1.56 -0.04,-0.02 3.72,1.41 -0.04,-0.02 3.77,1.24 -0.07,-0.02 9.74,2.39 -0.06,-0.01 2.97,0.53 h 0.03 l 11.19,2.26 h 0.01 l 2.64,0.56 0.33,0.15 0.34,0.23 c 0.21,0.15 0.33,0.4 0.3,0.66 -0.03,0.26 -0.2,0.48 -0.44,0.58 l -0.38,0.15 c -0.16,0.07 -0.34,0.09 -0.51,0.06 l -2.66,-0.48 h -0.02 l -11.19,-2.26 0.02,0.01 -2.97,-0.54 -0.06,-0.01 -9.75,-2.39 -0.07,-0.02 -3.77,-1.24 -0.04,-0.01 -3.72,-1.4 -0.04,-0.02 -3.65,-1.56 -0.06,-0.04 -8.47,-4.42 -0.07,-0.03 -3.16,-1.98 -0.04,-0.03 -0.31,-0.21 -0.05,-0.04 -0.23,-0.18 0.07,0.04 -0.09,-0.06 0.03,0.02 -0.09,-0.05 0.04,0.02 -0.1,-0.05 0.04,0.02 -0.1,-0.05 0.04,0.02 -0.1,-0.05 0.04,0.02 -0.1,-0.04 0.04,0.01 -0.1,-0.03 0.04,0.01 -0.11,-0.03 0.04,0.01 -0.1,-0.03 0.04,0.01 -0.11,-0.02 c -0.52,-0.11 -0.86,-0.62 -0.76,-1.15 0.11,-0.53 0.63,-0.86 1.15,-0.76 z" /><path
       id="path26"
       style="fill:#000000;fill-opacity:1;fill-rule:nonzero;stroke:none"
       d="m 214.77,227.61 v 0.48 0.05 l -0.09,1.66 v 0.04 l -0.16,1.65 -0.01,0.07 -0.62,3.66 v 0.01 l -0.27,1.47 v 0.01 l -1.53,8.19 v -0.01 l -2.93,16.93 v -0.03 l -0.36,2.53 0.01,-0.01 -1.61,12.66 0.01,-0.08 -0.51,12.72 v -0.04 0.1 -0.04 0.09 -0.04 l 0.01,0.1 -0.01,-0.04 0.01,0.09 v -0.04 l 0.01,0.1 v -0.04 l 0.02,0.09 -0.01,-0.04 0.02,0.09 -0.01,-0.04 0.03,0.1 -0.02,-0.05 0.04,0.1 -0.03,-0.07 0.1,0.22 -0.09,-0.16 0.02,0.03 -0.02,-0.03 0.02,0.03 -0.03,-0.03 0.03,0.02 -0.03,-0.03 0.02,0.03 -0.03,-0.03 0.03,0.02 -0.03,-0.02 0.03,0.02 -0.04,-0.03 0.03,0.03 -0.03,-0.03 0.03,0.02 -0.03,-0.02 0.03,0.02 -0.04,-0.03 0.03,0.03 -0.03,-0.03 0.03,0.02 -0.04,-0.02 0.03,0.02 -0.03,-0.02 0.03,0.02 -0.04,-0.02 0.04,0.01 -0.04,-0.01 0.03,0.01 -0.04,-0.01 0.04,0.01 -0.05,-0.01 0.04,0.01 -0.04,-0.02 0.04,0.01 -0.05,-0.01 0.04,0.01 -0.04,-0.01 0.04,0.01 -0.05,-0.01 0.04,0.01 -0.04,-0.01 0.04,0.01 h -0.05 0.04 -0.04 0.04 -0.05 l 0.04,-0.01 -0.04,0.01 0.03,-0.01 -0.04,0.01 0.04,-0.01 -0.04,0.01 0.03,-0.01 -0.07,0.02 0.09,-0.02 h -0.02 l 0.25,-0.08 -0.04,0.02 0.25,-0.09 -0.04,0.01 0.24,-0.1 -0.04,0.02 0.23,-0.11 -0.03,0.02 0.23,-0.12 -0.04,0.02 0.22,-0.13 -0.03,0.02 0.22,-0.14 -0.04,0.03 0.22,-0.15 -0.04,0.02 0.21,-0.15 -0.06,0.05 0.53,-0.49 v 0 l 1.01,-0.92 -0.03,0.03 0.97,-0.97 -0.06,0.06 2.49,-2.96 -0.05,0.08 3.81,-5.53 -0.01,0.01 0.23,-0.34 -0.03,0.04 9.57,-16.17 -0.02,0.05 8.69,-16.87 v 0 l 0.37,-0.73 -0.02,0.03 1.02,-2.17 -0.02,0.06 0.07,-0.19 -0.01,0.04 0.06,-0.21 -0.01,0.04 0.06,-0.2 -0.01,0.04 0.05,-0.21 -0.01,0.05 0.04,-0.21 -0.01,0.04 0.03,-0.21 v 0.04 l 0.02,-0.21 v 0.04 l 0.01,-0.21 v 0.08 l -0.01,-0.57 v -0.03 -0.02 l 0.01,-0.14 v -0.02 0.04 -0.02 l -0.01,0.04 0.01,-0.02 -0.01,0.04 v -0.02 0.05 -0.02 l 0.01,0.04 -0.01,-0.02 0.01,0.04 v -0.02 0.04 -0.02 l 0.01,0.05 -0.01,-0.02 0.01,0.03 v -0.02 l 0.01,0.04 -0.01,-0.01 0.01,0.04 v -0.02 l 0.01,0.04 -0.01,-0.02 0.02,0.03 -0.01,-0.01 0.02,0.04 -0.01,-0.02 0.02,0.03 -0.01,-0.02 0.02,0.04 -0.01,-0.01 0.07,0.1 -0.02,-0.03 c -0.32,-0.39 -0.27,-0.95 0.1,-1.28 0.36,-0.33 0.93,-0.32 1.28,0.03 l 0.03,0.04 v 0 l 0.02,0.01 0.03,0.03 0.01,0.02 0.03,0.03 0.01,0.02 0.02,0.03 0.01,0.01 0.03,0.04 0.01,0.01 0.02,0.04 0.01,0.01 0.03,0.04 v 0.02 l 0.02,0.03 0.01,0.02 0.02,0.04 0.01,0.01 0.01,0.04 0.01,0.02 0.02,0.04 v 0.02 l 0.02,0.04 v 0.01 l 0.01,0.05 0.01,0.02 0.01,0.04 v 0.02 l 0.01,0.04 v 0.02 l 0.01,0.04 v 0.02 l 0.01,0.04 v 0.02 l -0.03,-0.16 0.01,0.02 0.03,0.22 0.01,0.57 v 0.08 l -0.02,0.21 v 0.04 l -0.02,0.21 -0.01,0.04 -0.03,0.22 -0.01,0.04 -0.04,0.21 -0.01,0.04 -0.04,0.2 -0.02,0.05 -0.05,0.2 -0.02,0.04 -0.06,0.2 -0.02,0.04 -0.07,0.2 -0.03,0.07 -1.02,2.17 -0.02,0.03 -0.37,0.73 v 0 l -8.69,16.87 -0.03,0.05 -9.57,16.17 -0.03,0.04 -0.22,0.34 -0.01,0.02 -3.82,5.54 -0.06,0.07 -2.49,2.95 -0.05,0.06 -0.97,0.97 -0.03,0.03 -1.01,0.93 h -0.01 l -0.54,0.49 -0.06,0.05 -0.2,0.16 -0.04,0.03 -0.21,0.14 -0.04,0.03 -0.22,0.14 -0.03,0.02 -0.23,0.13 -0.03,0.02 -0.24,0.12 -0.03,0.02 -0.24,0.11 -0.04,0.02 -0.24,0.09 -0.04,0.02 -0.24,0.09 -0.04,0.01 -0.25,0.08 -0.02,0.01 -0.09,0.02 -0.07,0.02 -0.04,0.01 -0.04,0.01 h -0.04 l -0.04,0.01 h -0.04 l -0.04,0.01 h -0.04 -0.04 -0.04 -0.04 -0.04 -0.04 -0.03 -0.05 l -0.03,-0.01 h -0.05 l -0.03,-0.01 h -0.05 l -0.03,-0.01 -0.04,-0.01 -0.04,-0.01 -0.04,-0.01 -0.04,-0.01 -0.04,-0.01 -0.03,-0.01 -0.04,-0.02 -0.04,-0.01 -0.04,-0.01 -0.03,-0.02 -0.04,-0.02 -0.03,-0.01 -0.04,-0.02 -0.04,-0.02 -0.03,-0.02 -0.03,-0.02 -0.04,-0.02 -0.03,-0.02 -0.04,-0.02 -0.03,-0.03 -0.03,-0.02 -0.03,-0.03 -0.03,-0.02 -0.03,-0.03 -0.03,-0.02 -0.03,-0.03 -0.03,-0.03 -0.03,-0.03 -0.03,-0.03 -0.02,-0.03 -0.03,-0.03 -0.02,-0.03 -0.03,-0.03 -0.02,-0.03 -0.03,-0.03 -0.02,-0.03 -0.08,-0.16 -0.1,-0.22 -0.03,-0.07 -0.03,-0.09 -0.02,-0.04 -0.02,-0.09 -0.02,-0.04 -0.02,-0.1 -0.01,-0.04 -0.02,-0.1 -0.01,-0.04 -0.01,-0.09 -0.01,-0.05 -0.01,-0.09 -0.01,-0.04 -0.01,-0.1 v -0.04 -0.1 -0.04 -0.1 -0.03 l 0.51,-12.72 0.01,-0.08 1.6,-12.67 v -0.01 l 0.36,-2.53 0.01,-0.03 2.93,-16.93 0.01,-0.01 1.53,-8.2 v 0 l 0.27,-1.47 -0.01,0.01 0.62,-3.66 -0.01,0.07 0.16,-1.65 -0.01,0.05 0.09,-1.66 v 0.05 -0.48 c 0,-0.53 0.44,-0.97 0.97,-0.97 0.54,0 0.98,0.44 0.98,0.97 z" /><path
       id="path28"
       style="fill:#000000;fill-opacity:1;fill-rule:nonzero;stroke:none"
       d="m 207.27,255.53 v 0 c 0.53,0 0.97,0.44 0.97,0.97 0,0.54 -0.44,0.98 -0.97,0.98 v 0 c -0.54,0 -0.97,-0.44 -0.97,-0.98 0,-0.53 0.43,-0.97 0.97,-0.97 h 0.08 l 0.38,0.08 0.19,0.08 -0.03,-0.01 0.45,0.17 -0.03,-0.01 0.74,0.27 0.04,0.02 1,0.41 0.04,0.02 1.37,0.65 0.04,0.02 1.79,0.94 v 0.01 l 2.19,1.16 h -0.01 l 2.49,1.29 -0.03,-0.01 2.54,1.21 -0.03,-0.01 2.37,1.04 h -0.02 l 2.05,0.85 h -0.01 l 1.69,0.69 v 0 l 1.22,0.49 0.26,0.15 0.62,0.52 c 0.24,0.2 0.32,0.52 0.21,0.8 -0.12,0.29 -0.4,0.47 -0.7,0.45 l -0.8,-0.04 -0.31,-0.07 -1.23,-0.5 h -0.01 l -1.69,-0.69 v 0 l -2.05,-0.86 h -0.01 l -2.38,-1.05 -0.02,-0.01 -2.54,-1.21 -0.03,-0.02 -2.49,-1.29 -0.01,-0.01 -2.18,-1.16 v 0 l -1.79,-0.95 0.03,0.02 -1.36,-0.65 0.04,0.02 -1,-0.42 0.05,0.02 -0.74,-0.26 -0.03,-0.01 -0.45,-0.18 -0.02,-0.01 -0.19,-0.08 0.39,0.08 h -0.08 c -0.54,0 -0.97,-0.44 -0.97,-0.98 0,-0.53 0.43,-0.97 0.97,-0.97 v 0 c 0.53,0 0.97,0.44 0.97,0.97 0,0.54 -0.44,0.98 -0.97,0.98 v 0 c -0.54,0 -0.97,-0.44 -0.97,-0.98 0,-0.53 0.43,-0.97 0.97,-0.97 z" /><path
       id="path30"
       style="fill:#000000;fill-opacity:1;fill-rule:nonzero;stroke:none"
       d="m 258.08,234.62 v 0 c -0.48,0.24 -1.06,0.04 -1.31,-0.44 -0.24,-0.48 -0.04,-1.07 0.44,-1.31 v 0 c 0.48,-0.24 1.07,-0.04 1.31,0.44 0.24,0.48 0.04,1.07 -0.44,1.31 v 0 l 0.51,-0.65 -0.02,0.11 -0.02,0.08 -2.8,8.64 0.03,-0.08 -2.04,8.84 0.01,-0.01 -0.06,0.26 0.01,-0.03 -5.84,31.51 0.01,-0.02 -0.09,0.53 -0.01,0.04 -0.05,0.26 v -0.04 l -0.04,0.27 0.01,-0.04 -0.04,0.28 0.01,-0.05 -0.02,0.28 v -0.05 l -0.01,0.28 v -0.07 l 0.03,0.66 v 0.15 0.01 -0.03 0 -0.04 0.01 -0.05 0.01 -0.04 0.01 -0.05 0.01 l -0.01,-0.04 v 0 -0.04 0.01 l -0.01,-0.04 v 0.01 l -0.01,-0.05 v 0.01 l -0.01,-0.05 v 0 l -0.01,-0.02 v 0 l -0.02,-0.05 v 0.01 l -0.01,-0.03 v 0 l -0.02,-0.04 v 0.01 l -0.01,-0.04 v 0.01 l -0.02,-0.03 v 0 l -0.03,-0.04 0.01,0.01 -0.03,-0.04 v 0 l -0.02,-0.02 0.01,0.01 -0.03,-0.04 v 0 l -0.03,-0.03 v 0.01 l -0.02,-0.03 v 0.01 l -0.03,-0.03 v 0 l -0.03,-0.02 v 0 L 247.3,285 v 0.01 l -0.03,-0.02 h 0.01 l -0.04,-0.02 v 0 l -0.03,-0.02 v 0 l -0.04,-0.02 0.01,0.01 -0.04,-0.02 h 0.01 l -0.04,-0.01 v 0 l -0.04,-0.01 h 0.01 l -0.04,-0.01 v 0 l -0.03,-0.01 v 0 l -0.04,-0.01 v 0 h -0.04 0.01 l -0.05,-0.01 h 0.01 -0.04 0.01 -0.05 0.01 -0.04 0.01 l -0.05,0.01 h 0.01 -0.05 0.01 l -0.03,0.01 v 0 l -0.05,0.01 0.01,-0.01 -0.04,0.01 h 0.01 l -0.04,0.01 v 0 l -0.04,0.02 v 0 l -0.03,0.01 h 0.01 l -0.04,0.02 v -0.01 l -0.03,0.02 h 0.01 l -0.05,0.02 h 0.01 l -0.04,0.02 0.01,-0.01 -0.04,0.03 v 0 l -0.06,0.05 0.02,-0.02 0.02,-0.02 0.44,-0.35 -0.05,0.04 0.02,-0.02 -0.04,0.05 1,-1.04 -0.03,0.03 0.95,-1.07 -0.03,0.03 0.91,-1.11 -0.04,0.05 1.73,-2.46 h -0.01 l 0.6,-0.86 -0.02,0.03 6.04,-9.3 v 0 l 5.17,-8.04 0.04,-0.06 5.71,-7.6 0.06,-0.08 2.69,-2.92 0.05,-0.05 0.43,-0.41 0.03,-0.03 0.45,-0.4 0.04,-0.02 0.46,-0.38 0.04,-0.02 0.48,-0.35 0.06,-0.04 1.22,-0.76 0.01,-0.01 0.09,-0.05 0.04,-0.02 0.09,-0.05 0.04,-0.02 0.09,-0.05 0.04,-0.02 0.1,-0.04 0.04,-0.01 0.1,-0.04 0.04,-0.01 0.1,-0.04 0.04,-0.01 0.1,-0.03 0.04,-0.01 0.1,-0.02 0.04,-0.01 0.1,-0.02 0.05,-0.01 0.1,-0.01 0.04,-0.01 0.11,-0.01 h 0.04 l 0.1,-0.01 h 0.08 0.26 l 0.24,0.04 0.05,0.01 0.04,0.01 0.06,0.02 0.04,0.01 0.05,0.02 0.04,0.02 0.05,0.02 0.03,0.02 0.05,0.02 0.04,0.02 0.05,0.02 0.04,0.02 0.04,0.03 0.04,0.02 0.04,0.03 0.04,0.03 0.04,0.03 0.04,0.02 0.04,0.04 0.03,0.02 0.04,0.04 0.04,0.03 0.03,0.03 0.03,0.03 0.04,0.04 0.03,0.03 0.04,0.04 0.03,0.03 0.03,0.04 0.03,0.04 0.03,0.04 0.02,0.03 0.04,0.05 0.02,0.03 0.03,0.05 0.02,0.04 0.03,0.04 0.02,0.04 0.02,0.05 0.02,0.04 0.02,0.04 0.02,0.04 0.02,0.05 0.01,0.04 0.02,0.05 0.01,0.04 0.02,0.05 0.01,0.05 0.02,0.05 0.01,0.07 0.03,0.14 -0.01,-0.04 0.13,0.58 0.01,0.04 0.1,0.59 0.01,0.04 0.07,0.59 0.01,0.04 0.05,0.59 v 0.07 l 0.02,1.44 v 0.09 l -0.31,3.97 v 0.03 l -0.06,0.56 v 0.05 l -2.58,16.64 -0.01,0.06 -3.61,16.47 -0.01,0.02 -1.35,5.56 v 0 l -1.89,8.03 0.01,-0.08 -0.13,0.89 0.01,-0.08 -0.01,0.18 v 0.04 l -0.02,0.17 -0.01,0.05 -0.02,0.17 -0.01,0.04 -0.03,0.18 -0.01,0.04 -0.04,0.17 -0.01,0.04 -0.05,0.18 -0.01,0.04 -0.06,0.17 -0.02,0.07 -0.18,0.43 c -0.13,0.31 -0.41,0.53 -0.75,0.58 l -0.05,0.01 c -0.28,0.04 -0.56,-0.04 -0.77,-0.22 -0.21,-0.19 -0.32,-0.46 -0.31,-0.74 l 0.01,-0.05 0.07,-0.34 0.18,-0.42 -0.03,0.07 0.06,-0.17 -0.01,0.04 0.04,-0.17 -0.01,0.04 0.04,-0.17 -0.01,0.04 0.04,-0.18 -0.01,0.05 0.03,-0.18 -0.01,0.04 0.02,-0.18 v 0.05 -0.18 l 0.01,-0.09 0.13,-0.89 0.02,-0.08 1.9,-8.04 v -0.01 l 1.35,-5.56 -0.01,0.03 3.61,-16.47 -0.01,0.06 2.58,-16.65 -0.01,0.05 0.06,-0.56 v 0.02 l 0.3,-3.97 v 0.09 l -0.02,-1.44 0.01,0.07 -0.05,-0.59 v 0.04 l -0.08,-0.59 0.01,0.04 -0.1,-0.58 0.01,0.04 -0.13,-0.58 -0.01,-0.03 -0.03,-0.14 0.02,0.07 -0.01,-0.05 0.01,0.04 -0.02,-0.05 0.02,0.04 -0.02,-0.05 0.01,0.04 -0.02,-0.05 0.02,0.04 -0.02,-0.05 0.02,0.04 -0.03,-0.05 0.02,0.04 -0.02,-0.05 0.02,0.04 -0.03,-0.05 0.02,0.04 -0.03,-0.05 0.03,0.04 -0.04,-0.04 0.03,0.03 -0.03,-0.04 0.02,0.03 -0.03,-0.04 0.03,0.03 -0.04,-0.04 0.03,0.03 -0.04,-0.03 0.03,0.02 -0.04,-0.03 0.03,0.03 -0.04,-0.04 0.04,0.03 -0.05,-0.03 0.04,0.02 -0.05,-0.03 0.04,0.02 -0.05,-0.02 0.04,0.02 -0.05,-0.03 0.04,0.02 -0.05,-0.02 0.04,0.02 -0.05,-0.02 0.04,0.01 -0.05,-0.02 0.04,0.02 -0.05,-0.02 0.04,0.01 -0.05,-0.01 0.24,0.03 h -0.27 0.08 -0.11 0.04 l -0.1,0.01 0.04,-0.01 -0.1,0.02 0.04,-0.01 -0.1,0.02 0.04,-0.01 -0.1,0.03 0.04,-0.01 -0.1,0.02 0.04,-0.01 -0.1,0.04 0.04,-0.02 -0.1,0.04 0.04,-0.02 -0.09,0.04 0.04,-0.01 -0.1,0.04 0.04,-0.02 -0.09,0.05 0.03,-0.02 -0.09,0.05 h 0.02 l -1.22,0.75 0.06,-0.04 -0.49,0.35 0.04,-0.02 -0.47,0.37 0.03,-0.03 -0.45,0.4 0.03,-0.03 -0.43,0.41 0.04,-0.05 -2.69,2.93 0.07,-0.07 -5.71,7.6 0.04,-0.06 -5.17,8.05 v 0 l -6.04,9.3 -0.02,0.02 -0.6,0.87 v 0 l -1.73,2.46 -0.04,0.05 -0.9,1.12 -0.03,0.03 -0.95,1.08 -0.03,0.03 -1,1.03 -0.04,0.04 -0.02,0.02 -0.05,0.04 -0.44,0.36 0.02,-0.02 -0.01,0.01 -0.06,0.04 -0.01,0.01 -0.04,0.03 v 0 l -0.03,0.02 h -0.01 l -0.04,0.03 h -0.01 l -0.03,0.02 h -0.01 l -0.04,0.02 v 0 l -0.04,0.02 v 0 l -0.05,0.01 -0.01,0.01 -0.04,0.01 v 0 l -0.04,0.01 h -0.01 l -0.05,0.01 v 0 L 247,286.8 v 0 h -0.05 v 0.01 h -0.05 v 0 h -0.05 v 0 h -0.05 v 0 h -0.04 -0.01 l -0.04,-0.01 h -0.01 -0.04 -0.01 l -0.04,-0.01 h -0.01 l -0.03,-0.01 h -0.01 l -0.04,-0.02 h -0.01 l -0.04,-0.01 h -0.01 l -0.04,-0.02 h -0.01 l -0.03,-0.02 h -0.01 l -0.04,-0.02 v 0 l -0.04,-0.02 v 0 l -0.05,-0.03 v 0 l -0.03,-0.02 h -0.01 l -0.03,-0.03 -0.01,-0.01 -0.03,-0.02 h -0.01 l -0.03,-0.04 h -0.01 l -0.02,-0.02 -0.01,-0.01 -0.03,-0.03 v 0 l -0.04,-0.04 v -0.01 l -0.02,-0.02 v 0 l -0.03,-0.04 -0.01,-0.01 -0.02,-0.04 h -0.01 l -0.02,-0.04 v 0 l -0.02,-0.04 v 0 l -0.03,-0.04 v -0.01 l -0.01,-0.03 -0.01,-0.01 -0.02,-0.05 v 0 l -0.01,-0.03 v -0.01 l -0.01,-0.04 -0.01,-0.01 -0.01,-0.05 v -0.01 l -0.01,-0.03 v -0.01 -0.04 h -0.01 v -0.05 0 l -0.01,-0.05 v -0.01 -0.03 -0.01 -0.05 0 l 0.01,-0.05 v 0 -0.03 -0.01 0.15 l -0.04,-0.66 v -0.08 l 0.01,-0.27 v -0.04 l 0.02,-0.28 0.01,-0.04 0.03,-0.27 0.01,-0.05 0.04,-0.27 0.01,-0.04 0.05,-0.27 v 0.04 l 0.08,-0.53 0.01,-0.02 5.83,-31.5 v -0.03 l 0.06,-0.26 v -0.01 l 2.04,-8.85 0.02,-0.08 2.79,-8.64 -0.02,0.07 0.03,-0.11 c 0.06,-0.28 0.25,-0.52 0.51,-0.65 v 0 c 0.48,-0.24 1.07,-0.04 1.31,0.44 0.24,0.48 0.04,1.07 -0.44,1.31 v 0 c -0.48,0.24 -1.06,0.04 -1.31,-0.44 -0.24,-0.48 -0.04,-1.07 0.44,-1.31 v 0 c 0.48,-0.24 1.07,-0.04 1.31,0.44 0.24,0.48 0.04,1.07 -0.44,1.31 z" /><path
       id="path32"
       style="fill:#000000;fill-opacity:1;fill-rule:nonzero;stroke:none"
       d="m 299.65,298.87 v 0 l -0.73,0.33 0.1,-0.11 -0.11,0.15 0.15,-0.26 -0.02,0.04 0.14,-0.27 -0.02,0.04 0.13,-0.28 -0.02,0.04 0.11,-0.28 -0.01,0.04 0.1,-0.28 -0.02,0.06 0.18,-0.63 0.01,-0.01 0.12,-0.4 -0.02,0.06 1.76,-7.44 -0.01,0.07 1.24,-7.68 v 0.01 l 0.04,-0.24 -0.01,0.02 3,-23.37 v 0.02 l 0.04,-0.35 v -0.01 l 0.29,-2.48 v 0.04 l 0.18,-2.49 v 0.07 l -0.01,-5.98 v -0.03 l 0.01,-0.2 c 0.01,-0.44 0.32,-0.81 0.75,-0.89 0.43,-0.08 0.86,0.15 1.03,0.55 l 0.08,0.18 0.08,0.39 v 5.98 0.07 l -0.18,2.49 v 0.05 l -0.3,2.48 v -0.01 l -0.03,0.35 -0.01,0.02 -2.99,23.37 -0.01,0.02 -0.03,0.24 v 0.01 l -1.25,7.68 -0.01,0.07 -1.76,7.44 -0.02,0.06 -0.12,0.39 0.01,-0.01 -0.19,0.63 -0.02,0.07 -0.1,0.28 -0.02,0.04 -0.11,0.28 -0.02,0.04 -0.13,0.27 -0.01,0.04 -0.14,0.27 -0.02,0.03 -0.16,0.27 -0.1,0.15 -0.1,0.11 c -0.19,0.21 -0.45,0.33 -0.74,0.33 v 0 c -0.53,0 -0.97,-0.43 -0.97,-0.97 0,-0.54 0.44,-0.97 0.97,-0.97 z" /><path
       id="path34"
       style="fill:#000000;fill-opacity:1;fill-rule:nonzero;stroke:none"
       d="m 300.77,289.95 0.6,0.53 0.04,0.04 0.79,0.79 -0.03,-0.03 0.82,0.77 -0.03,-0.03 0.86,0.72 -0.04,-0.02 0.89,0.68 -0.03,-0.02 0.91,0.65 -0.03,-0.03 0.94,0.61 -0.06,-0.03 2.04,1.12 -0.06,-0.03 1.42,0.68 -0.04,-0.02 1.45,0.62 -0.04,-0.02 1.47,0.55 -0.07,-0.03 4.14,1.18 -0.06,-0.02 0.71,0.16 -0.04,-0.01 0.72,0.12 H 318 l 0.73,0.09 -0.05,-0.01 0.73,0.07 -0.08,-0.01 h 2.09 -0.09 l 0.44,-0.04 -0.04,0.01 0.44,-0.06 h -0.04 l 0.44,-0.07 h -0.04 l 0.44,-0.1 -0.05,0.02 0.44,-0.12 -0.04,0.01 0.42,-0.14 -0.04,0.02 0.42,-0.16 -0.04,0.02 0.41,-0.18 -0.04,0.02 0.41,-0.19 -0.06,0.03 0.86,-0.48 -0.08,0.05 0.8,-0.56 -0.03,0.03 0.78,-0.59 -0.04,0.02 0.75,-0.62 -0.03,0.03 0.73,-0.66 -0.04,0.03 0.7,-0.69 -0.03,0.04 0.66,-0.72 -0.03,0.03 0.63,-0.74 -0.04,0.05 1.18,-1.59 -0.03,0.04 0.71,-1.07 -0.03,0.04 0.67,-1.1 -0.02,0.04 0.61,-1.13 -0.02,0.04 0.57,-1.15 -0.04,0.07 1.34,-3.45 -0.02,0.08 0.18,-0.61 -0.01,0.04 0.15,-0.62 -0.01,0.04 0.13,-0.62 -0.01,0.04 0.1,-0.63 v 0.04 l 0.07,-0.64 -0.01,0.05 0.05,-0.64 v 0.04 l 0.01,-0.64 v 0.08 l -0.09,-1.7 0.01,0.1 -0.13,-0.9 v 0.04 l -0.17,-0.89 0.01,0.04 -0.22,-0.88 0.02,0.04 -0.26,-0.87 0.03,0.08 -0.9,-2.37 0.02,0.06 -0.82,-1.78 0.01,0.04 -0.9,-1.74 0.02,0.03 -0.98,-1.7 0.02,0.04 -1.05,-1.66 0.04,0.06 -3.04,-4.04 0.05,0.06 -2.3,-2.6 0.06,0.05 -6.8,-6.53 0.04,0.04 -8.15,-6.87 0.06,0.05 -8.67,-6.13 0.06,0.04 -2.88,-1.72 -0.02,-0.02 -6.48,-4.11 -0.23,-0.2 -0.47,-0.59 c -0.2,-0.25 -0.21,-0.59 -0.03,-0.85 0.18,-0.26 0.51,-0.36 0.81,-0.26 l 0.71,0.24 0.2,0.09 6.52,4.03 -0.01,-0.01 2.88,1.73 0.07,0.04 8.67,6.13 0.06,0.05 8.16,6.87 0.05,0.04 6.8,6.54 0.05,0.06 2.3,2.6 0.05,0.06 3.04,4.04 0.04,0.06 1.06,1.66 0.02,0.04 0.98,1.7 0.02,0.04 0.9,1.74 0.02,0.04 0.83,1.78 0.03,0.06 0.9,2.37 0.03,0.08 0.25,0.87 0.01,0.04 0.21,0.88 0.01,0.05 0.18,0.89 v 0.04 l 0.14,0.9 0.01,0.09 0.09,1.7 v 0.08 l -0.02,0.63 v 0.05 l -0.04,0.63 -0.01,0.05 -0.07,0.63 v 0.04 l -0.1,0.63 -0.01,0.04 -0.13,0.63 -0.01,0.04 -0.15,0.62 -0.01,0.04 -0.19,0.61 -0.02,0.08 -1.34,3.45 -0.03,0.07 -0.57,1.16 -0.02,0.03 -0.61,1.13 -0.02,0.04 -0.67,1.1 -0.02,0.03 -0.71,1.07 -0.03,0.04 -1.17,1.59 -0.04,0.05 -0.63,0.74 -0.03,0.03 -0.66,0.72 -0.03,0.03 -0.69,0.69 -0.04,0.03 -0.72,0.65 -0.03,0.03 -0.75,0.62 -0.03,0.03 -0.78,0.59 -0.04,0.02 -0.8,0.56 -0.08,0.05 -0.86,0.48 -0.06,0.03 -0.4,0.19 -0.04,0.02 -0.42,0.17 -0.03,0.02 -0.42,0.16 -0.04,0.01 -0.43,0.14 -0.04,0.01 -0.43,0.12 -0.04,0.01 -0.44,0.09 -0.04,0.01 -0.44,0.08 -0.04,0.01 -0.45,0.06 h -0.04 l -0.44,0.05 h -0.09 -2.09 -0.08 l -0.73,-0.06 -0.04,-0.01 -0.73,-0.09 -0.04,-0.01 -0.72,-0.12 -0.04,-0.01 -0.72,-0.15 -0.05,-0.02 -4.15,-1.17 -0.07,-0.03 -1.47,-0.54 -0.04,-0.02 -1.45,-0.61 -0.04,-0.02 -1.42,-0.68 -0.05,-0.02 -2.03,-1.13 -0.05,-0.03 -0.95,-0.61 -0.03,-0.02 -0.92,-0.65 -0.03,-0.02 -0.89,-0.69 -0.03,-0.03 -0.86,-0.72 -0.03,-0.03 -0.83,-0.76 -0.03,-0.03 -0.79,-0.8 0.04,0.04 -0.59,-0.53 c -0.4,-0.36 -0.43,-0.98 -0.07,-1.38 0.36,-0.4 0.97,-0.43 1.37,-0.07 z" /><path
       id="path36"
       style="fill:#000000;fill-opacity:1;fill-rule:nonzero;stroke:none"
       d="m 350.1,318.5 0.1,-0.4 0.01,-0.02 3.29,-11.77 v 0.01 l 2.3,-8.44 v 0 l 4.59,-16.39 -0.01,0.04 3.81,-16.53 -0.02,0.08 0.64,-4.38 -0.01,0.07 0.06,-0.81 V 260 l 0.02,-0.82 v 0.05 l -0.01,-0.82 v 0.07 l -0.17,-1.92 c -0.02,-0.31 0.1,-0.62 0.34,-0.82 0.23,-0.21 0.55,-0.28 0.86,-0.21 l 0.11,0.02 h -0.04 l 0.11,0.02 -0.04,-0.01 0.11,0.02 -0.04,-0.01 0.11,0.01 h -0.04 l 0.11,0.01 -0.04,-0.01 0.11,0.01 h -0.08 l 0.31,-0.02 h 0.05 l 0.26,-0.01 h 0.04 l 1.28,0.04 0.04,0.01 1.28,0.09 0.08,0.01 3.34,0.53 0.09,0.02 5.75,1.45 h 0.02 l 0.74,0.2 0.05,0.02 18.15,6.14 0.02,0.01 5.84,2.15 h 0.01 l 0.32,0.12 -0.04,-0.01 1.15,0.37 -0.04,-0.01 0.07,0.02 -0.04,-0.01 0.06,0.01 h -0.04 l 0.07,0.01 -0.04,-0.01 0.07,0.01 h -0.04 0.06 -0.04 0.07 -0.04 0.07 -0.04 0.07 -0.05 0.07 -0.04 l 0.07,-0.01 -0.04,0.01 0.07,-0.01 -0.04,0.01 0.06,-0.02 -0.04,0.01 0.07,-0.01 -0.07,0.01 0.15,-0.05 -0.4,0.26 0.07,-0.07 c 0.25,-0.26 0.63,-0.36 0.97,-0.24 0.35,0.11 0.59,0.42 0.63,0.78 l 0.01,0.1 c 0.05,0.45 -0.23,0.88 -0.66,1.02 l -0.15,0.05 -0.07,0.02 -0.07,0.02 -0.04,0.01 -0.07,0.01 -0.04,0.01 -0.07,0.01 -0.04,0.01 -0.07,0.01 h -0.04 l -0.07,0.01 h -0.04 -0.07 -0.04 -0.07 -0.05 -0.07 L 405,268.67 h -0.07 l -0.04,-0.01 -0.07,-0.01 -0.04,-0.01 -0.07,-0.01 -0.04,-0.01 -0.07,-0.01 -0.04,-0.01 -0.07,-0.02 -0.04,-0.02 -1.14,-0.37 -0.04,-0.02 -0.33,-0.12 h 0.01 l -5.84,-2.14 0.02,0.01 -18.14,-6.14 0.05,0.01 -0.74,-0.2 0.02,0.01 -5.75,-1.45 0.09,0.01 -3.35,-0.52 0.08,0.01 -1.27,-0.1 h 0.04 l -1.28,-0.04 h 0.04 -0.25 0.05 l -0.31,0.02 -0.08,0.01 -0.11,-0.01 h -0.05 l -0.11,-0.01 h -0.04 l -0.11,-0.01 -0.05,-0.01 -0.11,-0.01 -0.04,-0.01 -0.11,-0.02 -0.04,-0.01 -0.11,-0.03 c -0.49,-0.11 -0.81,-0.57 -0.74,-1.07 0.06,-0.49 0.48,-0.86 0.98,-0.85 0.5,0.01 0.91,0.39 0.95,0.89 l 0.17,1.92 0.01,0.07 0.01,0.82 v 0.04 l -0.03,0.82 v 0.04 l -0.06,0.81 -0.01,0.07 -0.63,4.38 -0.02,0.08 -3.81,16.53 -0.01,0.04 -4.58,16.39 v -0.01 l -2.3,8.44 v 0.01 l -3.3,11.76 0.01,-0.03 -0.1,0.4 c -0.13,0.52 -0.65,0.84 -1.18,0.71 -0.52,-0.13 -0.84,-0.66 -0.71,-1.18 z" /><path
       id="path38"
       style="fill:#000000;fill-opacity:1;fill-rule:nonzero;stroke:none"
       d="m 431.06,320.58 -0.19,-0.03 h 0.05 l -0.19,-0.02 0.04,0.01 -0.18,-0.02 h 0.04 -0.18 0.04 -0.19 0.07 l -0.39,0.03 h -0.03 l -0.63,0.04 h -0.05 -1.22 -0.03 l -16.33,-0.45 h -0.05 l -1.83,-0.15 h -0.03 l -6.66,-0.7 -0.12,-0.02 -0.17,-0.04 -0.04,-0.01 -0.18,-0.05 -0.04,-0.01 -0.17,-0.06 -0.04,-0.01 -0.16,-0.06 -0.04,-0.02 -0.17,-0.07 -0.07,-0.03 -0.44,-0.23 0.07,0.03 -1.04,-0.45 0.1,0.04 -0.04,-0.01 -0.04,-0.02 -0.04,-0.01 -0.04,-0.01 -0.04,-0.02 -0.04,-0.02 -0.04,-0.01 -0.04,-0.02 -0.04,-0.02 -0.03,-0.02 -0.04,-0.02 -0.04,-0.02 -0.03,-0.03 -0.04,-0.02 -0.03,-0.02 -0.04,-0.03 -0.03,-0.03 -0.04,-0.02 -0.03,-0.03 -0.03,-0.02 -0.03,-0.03 -0.03,-0.03 -0.04,-0.03 -0.02,-0.03 -0.03,-0.03 -0.03,-0.04 -0.03,-0.03 -0.03,-0.03 -0.02,-0.03 -0.03,-0.03 -0.02,-0.04 -0.03,-0.04 -0.02,-0.03 -0.02,-0.04 -0.03,-0.04 -0.01,-0.03 -0.02,-0.04 -0.03,-0.04 -0.01,-0.04 -0.02,-0.03 -0.02,-0.04 -0.01,-0.04 -0.02,-0.04 -0.01,-0.04 -0.02,-0.04 -0.01,-0.04 -0.01,-0.04 -0.01,-0.04 -0.01,-0.05 -0.01,-0.04 -0.01,-0.04 v -0.04 l -0.01,-0.05 v -0.03 l -0.01,-0.05 v -0.04 -0.04 l -0.01,-0.08 0.01,-0.1 v 0.01 -0.26 -0.05 l 0.01,-0.26 0.01,-0.05 0.02,-0.26 0.01,-0.08 0.13,-0.71 v -0.02 l 0.05,-0.23 0.01,-0.06 2.21,-8.55 v -0.02 l 0.83,-2.86 v -0.01 l 5.81,-19.41 v 0.01 l 6.5,-21.92 v 0.01 l 0.25,-0.88 -0.01,0.03 0.67,-2.64 -0.02,0.06 0.07,-0.33 -0.01,0.04 0.05,-0.34 -0.01,0.05 0.03,-0.34 v 0.04 l 0.02,-0.34 v 0.04 -0.34 0.07 l -0.07,-0.9 0.05,-0.37 v -0.01 l -0.01,0.05 v -0.01 l -0.01,0.03 v -0.01 l -0.01,0.05 0.01,-0.01 -0.01,0.05 v -0.01 l -0.01,0.04 v 0 0.04 -0.01 0.03 0 0.06 -0.01 0.03 -0.01 l 0.01,0.05 v -0.01 0.03 -0.01 l 0.01,0.06 v 0 l 0.01,0.03 -0.01,-0.01 0.02,0.04 v 0 l 0.01,0.04 v -0.01 l 0.01,0.04 v -0.01 l 0.02,0.04 h -0.01 l 0.02,0.03 -0.01,-0.01 0.03,0.05 -0.01,-0.01 0.04,0.05 h -0.01 l 0.01,0.01 v -0.01 l 0.02,0.04 v 0 l 0.04,0.04 -0.01,-0.01 0.02,0.02 h -0.01 l 0.04,0.04 -0.01,-0.01 0.04,0.03 h -0.01 l 0.02,0.02 v -0.01 l 0.03,0.03 v 0 l 0.04,0.03 v 0 l 0.02,0.01 h -0.01 l 0.04,0.02 v 0 l 0.03,0.02 v 0 l 0.03,0.02 v -0.01 l 0.04,0.02 h -0.01 l 0.04,0.01 h -0.01 l 0.04,0.01 h -0.01 l 0.08,0.02 h -0.02 c -0.44,-0.11 -0.75,-0.5 -0.74,-0.96 0,-0.45 0.32,-0.85 0.76,-0.94 0.45,-0.1 0.9,0.13 1.09,0.54 l 0.01,0.01 -0.02,-0.04 v 0 l -0.02,-0.03 v 0 l -0.01,-0.03 v 0.01 l -0.04,-0.05 0.01,0.01 -0.02,-0.03 0.01,0.01 -0.02,-0.03 v 0.01 l -0.03,-0.04 0.01,0.01 -0.04,-0.04 0.01,0.01 -0.03,-0.03 0.01,0.01 -0.04,-0.03 h 0.01 l -0.03,-0.02 v 0.01 l -0.03,-0.03 h 0.01 l -0.04,-0.02 h 0.01 l -0.03,-0.01 v 0 l -0.04,-0.03 v 0.01 l -0.03,-0.02 0.01,0.01 -0.04,-0.02 h 0.01 l -0.05,-0.01 h 0.01 l -0.03,-0.01 h 0.01 l -0.05,-0.01 H 417 l -0.04,-0.01 v 0 l -0.04,-0.01 h 0.01 -0.04 0.01 l -0.04,-0.01 h 0.01 -0.05 0.01 -0.04 0.01 -0.04 v 0 h -0.04 0.01 l -0.04,0.01 h 0.01 -0.04 v 0 l -0.04,0.01 h 0.01 l -0.05,0.01 h 0.01 l -0.03,0.01 v 0 l -0.06,0.02 0.01,-0.01 c 0.15,-0.05 0.31,-0.08 0.46,-0.06 l 0.45,0.04 0.05,0.01 0.45,0.07 h 0.04 l 0.44,0.09 0.05,0.01 0.44,0.1 0.04,0.01 0.44,0.13 0.04,0.01 0.43,0.14 0.06,0.03 0.99,0.4 -0.03,-0.01 1.14,0.44 -0.02,-0.01 0.68,0.24 0.03,0.01 8.36,3.19 0.05,0.02 1.74,0.77 0.04,0.02 1.7,0.85 0.07,0.04 4.42,2.68 0.05,0.03 0.78,0.54 -0.03,-0.02 0.58,0.38 0.04,0.02 0.56,0.4 0.04,0.03 0.54,0.42 0.04,0.03 0.52,0.44 0.07,0.06 1.43,1.45 0.15,0.19 0.1,0.17 0.11,0.28 0.01,0.02 -0.02,-0.04 0.01,0.02 -0.01,-0.04 0.01,0.03 -0.02,-0.04 0.01,0.02 -0.01,-0.04 0.01,0.03 -0.02,-0.04 0.01,0.02 -0.02,-0.04 0.01,0.03 -0.02,-0.04 0.02,0.02 -0.03,-0.04 0.02,0.02 -0.02,-0.02 0.01,0.02 -0.03,-0.04 0.02,0.02 -0.03,-0.03 0.02,0.02 -0.03,-0.03 0.02,0.01 -0.03,-0.02 0.02,0.01 -0.03,-0.02 0.02,0.01 -0.11,-0.08 0.06,0.04 c 0.42,0.27 0.54,0.83 0.29,1.26 -0.26,0.42 -0.82,0.57 -1.25,0.33 l -0.07,-0.04 -0.01,-0.01 -0.02,-0.01 -0.04,-0.02 -0.02,-0.01 -0.03,-0.03 -0.02,-0.01 -0.04,-0.03 -0.02,-0.01 -0.03,-0.03 -0.02,-0.01 -0.03,-0.03 -0.02,-0.02 -0.03,-0.02 -0.02,-0.02 -0.03,-0.04 -0.01,-0.01 -0.03,-0.03 -0.02,-0.02 -0.02,-0.04 -0.02,-0.02 -0.02,-0.03 -0.02,-0.02 -0.02,-0.04 -0.01,-0.02 -0.03,-0.03 -0.01,-0.03 -0.02,-0.03 -0.01,-0.02 -0.02,-0.04 -0.01,-0.03 0.05,0.1 -0.1,-0.17 0.14,0.18 -1.44,-1.45 0.06,0.06 -0.52,-0.45 0.03,0.03 -0.55,-0.42 0.04,0.02 -0.57,-0.4 0.04,0.03 -0.58,-0.38 -0.03,-0.02 -0.78,-0.54 0.05,0.03 -4.42,-2.67 0.07,0.03 -1.7,-0.84 0.03,0.01 -1.73,-0.77 0.05,0.02 -8.37,-3.19 0.02,0.01 -0.69,-0.24 -0.02,-0.01 -1.13,-0.44 -0.03,-0.01 -0.98,-0.4 0.07,0.02 -0.44,-0.14 0.05,0.01 -0.44,-0.12 0.04,0.01 -0.44,-0.11 0.04,0.01 -0.45,-0.08 h 0.05 l -0.45,-0.06 h 0.04 l -0.45,-0.04 0.46,-0.07 -0.02,0.01 -0.07,0.02 -0.01,0.01 -0.03,0.01 h -0.01 l -0.05,0.01 h -0.01 l -0.04,0.01 h -0.01 l -0.04,0.01 v 0 h -0.05 v 0.01 h -0.05 -0.01 -0.04 -0.01 -0.04 -0.01 -0.04 -0.01 l -0.04,-0.01 h -0.01 l -0.04,-0.01 h -0.01 l -0.04,-0.01 h -0.01 l -0.04,-0.01 h -0.01 l -0.04,-0.01 -0.01,-0.01 -0.03,-0.01 h -0.01 l -0.04,-0.02 h -0.01 l -0.04,-0.02 h -0.01 l -0.03,-0.02 h -0.01 l -0.05,-0.03 v 0 l -0.03,-0.02 h -0.01 l -0.04,-0.03 h -0.01 l -0.03,-0.03 h -0.01 l -0.03,-0.03 v 0 l -0.04,-0.03 v -0.01 l -0.03,-0.02 -0.01,-0.01 -0.03,-0.04 h -0.01 l -0.03,-0.04 v 0 l -0.03,-0.03 v -0.01 l -0.02,-0.02 v -0.01 l -0.04,-0.05 v -0.01 l -0.02,-0.03 h -0.01 l -0.02,-0.04 v -0.01 l -0.02,-0.04 v -0.01 c -0.16,-0.34 -0.11,-0.74 0.13,-1.03 0.23,-0.28 0.61,-0.41 0.98,-0.33 l 0.01,0.01 0.08,0.02 h 0.01 l 0.04,0.01 v 0.01 l 0.04,0.01 0.01,0.01 0.04,0.01 0.01,0.01 0.03,0.02 h 0.01 l 0.04,0.02 v 0 l 0.04,0.03 h 0.01 l 0.02,0.02 h 0.01 l 0.04,0.04 h 0.01 l 0.03,0.03 h 0.01 l 0.02,0.02 0.01,0.01 0.03,0.03 v 0.01 l 0.04,0.03 v 0.01 l 0.02,0.02 v 0 l 0.04,0.05 v 0 l 0.03,0.04 0.01,0.01 v 0.01 l 0.01,0.01 0.03,0.05 v 0.01 l 0.03,0.04 v 0.01 l 0.02,0.03 v 0 l 0.02,0.05 v 0 l 0.01,0.04 v 0 l 0.02,0.05 v 0 l 0.01,0.05 0.01,0.01 v 0.03 0 l 0.02,0.06 v 0.01 0.03 0.01 l 0.01,0.04 v 0.01 0.03 0.01 0.06 0 0.03 0.01 0.05 h -0.01 v 0.05 0 l -0.01,0.05 v 0.01 l -0.01,0.04 v 0.01 l -0.01,0.03 v 0.01 l -0.01,0.04 -0.01,0.01 0.05,-0.37 0.06,0.9 0.01,0.08 -0.01,0.34 v 0.04 l -0.01,0.35 -0.01,0.04 -0.03,0.34 v 0.04 l -0.05,0.34 -0.01,0.04 -0.06,0.34 -0.01,0.06 -0.67,2.63 v 0.03 l -0.26,0.88 v 0.02 l -6.5,21.91 h -0.01 l -5.8,19.41 v -0.01 l -0.82,2.86 v -0.03 l -2.2,8.55 0.01,-0.06 -0.05,0.23 0.01,-0.01 -0.13,0.71 0.01,-0.08 -0.02,0.27 v -0.04 l -0.01,0.26 v -0.04 l -0.01,0.27 v 0.01 0.1 -0.07 0.04 -0.04 0.04 -0.04 l 0.01,0.04 -0.01,-0.04 0.01,0.04 -0.01,-0.04 0.01,0.04 -0.01,-0.04 0.01,0.04 -0.01,-0.04 0.01,0.04 -0.01,-0.04 0.01,0.04 -0.02,-0.04 0.02,0.04 -0.02,-0.04 0.02,0.04 -0.02,-0.04 0.02,0.04 -0.02,-0.04 0.02,0.04 -0.02,-0.04 0.02,0.04 -0.02,-0.04 0.02,0.03 -0.02,-0.03 0.02,0.03 -0.02,-0.03 0.03,0.03 -0.03,-0.03 0.03,0.03 -0.03,-0.03 0.03,0.03 -0.04,-0.03 0.04,0.03 -0.03,-0.02 0.03,0.02 -0.03,-0.02 0.03,0.02 -0.04,-0.02 0.04,0.02 -0.04,-0.02 0.04,0.02 -0.04,-0.02 0.04,0.02 -0.04,-0.02 0.04,0.02 -0.04,-0.02 0.04,0.02 -0.04,-0.02 0.04,0.02 -0.04,-0.02 0.04,0.01 -0.04,-0.01 0.04,0.01 0.1,0.04 1.04,0.45 0.07,0.03 0.44,0.23 -0.07,-0.03 0.16,0.07 -0.03,-0.02 0.16,0.06 -0.04,-0.01 0.17,0.05 -0.04,-0.01 0.18,0.05 -0.05,-0.01 0.18,0.04 -0.12,-0.02 6.66,0.7 h -0.02 l 1.84,0.15 -0.05,-0.01 16.33,0.45 h -0.03 1.22 -0.05 l 0.63,-0.03 h -0.04 l 0.4,-0.03 0.06,-0.01 h 0.19 0.04 l 0.19,0.01 h 0.04 l 0.18,0.01 0.05,0.01 0.18,0.02 h 0.04 l 0.18,0.03 c 0.54,0.09 0.9,0.59 0.81,1.12 -0.08,0.53 -0.58,0.89 -1.11,0.81 z" /><path
       id="path40"
       style="fill:#000000;fill-opacity:1;fill-rule:nonzero;stroke:none"
       d="m 402.92,278.91 3.42,1.91 h -0.01 l 3.92,2.15 -0.08,-0.03 2.73,1.22 -0.04,-0.02 2.78,1.11 -0.06,-0.02 6.24,1.98 -0.06,-0.01 4.19,1.04 0.16,0.05 0.86,0.38 c 0.3,0.14 0.47,0.46 0.41,0.78 -0.06,0.33 -0.34,0.56 -0.67,0.58 l -0.94,0.04 -0.25,-0.02 -4.21,-0.96 -0.08,-0.02 -6.24,-1.99 -0.07,-0.02 -2.78,-1.1 -0.03,-0.02 -2.73,-1.22 -0.07,-0.04 -3.92,-2.15 -0.01,-0.01 -3.41,-1.91 c -0.47,-0.26 -0.64,-0.86 -0.38,-1.33 0.27,-0.47 0.86,-0.63 1.33,-0.37 z" /><path
       id="path42"
       style="fill:#000000;fill-opacity:1;fill-rule:nonzero;stroke:none"
       d="m 451.93,312.04 0.02,-0.14 0.01,-0.1 1.11,-5.49 -0.01,0.07 2.73,-21.18 v 0.05 l 1.47,-21.54 v 0.01 l 0.05,-0.89 v 0 l 0.11,-1.82 v 0.04 l 0.25,-10.64 0.08,0.42 -0.01,-0.04 c -0.18,-0.38 -0.08,-0.84 0.23,-1.12 0.32,-0.28 0.78,-0.33 1.14,-0.12 0.37,0.22 0.56,0.64 0.46,1.06 l -0.02,0.11 0.01,-0.06 -0.09,0.54 v 0 l -0.14,0.87 -0.02,0.07 -2.42,10.22 -0.01,0.06 -3.05,10.19 v 0.01 l -2.13,7 v -0.02 l -0.65,2.33 0.01,-0.05 -0.55,2.36 0.01,-0.05 -0.44,2.38 v -0.05 l -0.34,2.39 0.01,-0.04 -0.24,2.4 0.01,-0.07 -0.14,5.8 v -0.08 l 0.19,3.55 -0.01,-0.07 1.06,8.27 -0.01,-0.05 0.05,0.28 v 0.02 l 0.07,0.41 -0.01,-0.04 0.09,0.41 -0.02,-0.07 0.3,1.03 -0.02,-0.06 0.04,0.1 -0.02,-0.04 0.05,0.1 -0.02,-0.03 0.05,0.09 -0.02,-0.03 0.05,0.09 -0.02,-0.03 0.05,0.09 -0.02,-0.03 0.06,0.09 -0.03,-0.04 0.07,0.09 -0.03,-0.03 0.07,0.08 -0.03,-0.03 0.07,0.08 -0.03,-0.03 0.08,0.08 -0.03,-0.03 0.08,0.08 -0.03,-0.03 0.08,0.08 -0.04,-0.03 0.09,0.07 -0.03,-0.03 0.08,0.07 -0.06,-0.05 0.24,0.16 -0.16,-0.08 0.56,0.22 -0.04,-0.01 0.56,0.2 -0.04,-0.01 0.57,0.17 -0.04,-0.01 0.58,0.15 -0.04,-0.01 0.59,0.13 -0.05,-0.01 0.6,0.1 -0.08,-0.01 1.63,0.15 h -0.01 l 0.28,0.02 h -0.04 l 0.28,0.01 h -0.05 0.28 -0.04 l 0.28,-0.02 -0.04,0.01 0.28,-0.03 h -0.04 l 0.27,-0.03 h -0.04 l 0.28,-0.05 -0.04,0.01 0.27,-0.06 -0.04,0.01 0.27,-0.08 -0.04,0.02 0.26,-0.09 -0.04,0.02 0.27,-0.1 -0.06,0.02 0.53,-0.24 -0.1,0.05 0.2,-0.12 -0.03,0.03 0.19,-0.13 -0.03,0.02 0.19,-0.14 -0.04,0.03 0.19,-0.15 -0.03,0.03 0.18,-0.15 -0.04,0.03 0.18,-0.16 -0.04,0.03 0.17,-0.17 -0.03,0.03 0.16,-0.18 -0.03,0.04 0.15,-0.19 -0.03,0.04 0.14,-0.19 -0.02,0.03 0.13,-0.19 -0.02,0.04 0.12,-0.2 -0.02,0.03 0.12,-0.2 -0.04,0.07 0.26,-0.56 -0.03,0.07 0.26,-0.7 -0.01,0.04 0.23,-0.7 -0.02,0.04 0.2,-0.71 -0.01,0.04 0.17,-0.72 -0.01,0.04 0.14,-0.73 -0.01,0.05 0.11,-0.74 -0.01,0.05 0.07,-0.74 v 0.04 l 0.04,-0.74 v 0.07 l -0.03,-1.7 v 0.07 l -0.2,-2.46 v 0.07 l -0.8,-5.19 0.01,0.02 -0.13,-0.74 -0.01,-0.04 v -0.04 l -0.01,-0.04 v -0.05 l -0.01,-0.04 v -0.04 -0.05 -0.05 -0.04 -0.04 -0.05 l 0.01,-0.04 v -0.04 l 0.01,-0.05 v -0.04 l 0.01,-0.05 0.01,-0.04 0.01,-0.05 0.01,-0.04 0.01,-0.04 0.01,-0.04 0.01,-0.05 0.02,-0.04 0.01,-0.04 0.02,-0.04 0.01,-0.04 0.02,-0.04 0.02,-0.04 0.02,-0.04 0.02,-0.04 0.02,-0.04 0.02,-0.04 0.02,-0.04 0.03,-0.04 0.02,-0.03 0.03,-0.04 0.02,-0.03 0.03,-0.04 0.03,-0.04 0.03,-0.03 0.02,-0.04 0.04,-0.03 0.02,-0.03 0.04,-0.03 0.06,-0.06 0.1,-0.09 0.04,-0.03 0.19,-0.14 0.03,-0.03 0.19,-0.13 0.03,-0.02 0.2,-0.13 0.07,-0.03 0.54,-0.29 h -0.01 l 0.55,-0.28 -0.09,0.05 21.04,-14.11 -0.03,0.03 0.86,-0.63 0.02,-0.02 0.66,-0.46 -0.03,0.03 0.64,-0.49 -0.03,0.03 0.61,-0.51 -0.06,0.05 1.67,-1.65 0.17,-0.13 0.04,-0.02 c 0.22,-0.15 0.5,-0.19 0.75,-0.11 0.26,0.07 0.47,0.25 0.58,0.48 l 0.02,0.05 c 0.19,0.37 0.11,0.82 -0.19,1.12 l -1.67,1.65 -0.06,0.05 -0.62,0.52 -0.03,0.02 -0.64,0.49 -0.04,0.03 -0.66,0.45 0.02,-0.01 -0.86,0.63 -0.03,0.02 -21.04,14.1 -0.09,0.06 -0.54,0.28 v 0.01 l -0.55,0.28 0.07,-0.04 -0.19,0.13 0.03,-0.03 -0.19,0.13 0.04,-0.02 -0.19,0.14 0.05,-0.04 -0.1,0.09 0.06,-0.06 -0.03,0.03 0.02,-0.03 -0.03,0.04 0.03,-0.04 -0.03,0.04 0.03,-0.03 -0.03,0.03 0.03,-0.03 -0.03,0.04 0.02,-0.04 -0.02,0.04 0.02,-0.03 -0.02,0.04 0.02,-0.04 -0.02,0.04 0.01,-0.04 -0.02,0.04 0.02,-0.04 -0.01,0.05 0.01,-0.04 -0.02,0.04 0.02,-0.04 -0.02,0.05 0.02,-0.05 -0.02,0.05 0.01,-0.04 -0.01,0.04 0.01,-0.04 -0.01,0.05 0.01,-0.05 v 0.05 -0.04 0.04 -0.04 0.05 -0.04 0.04 -0.04 0.04 -0.04 0.05 l -0.01,-0.04 0.01,0.04 v -0.03 l 0.13,0.74 v 0.02 l 0.8,5.19 0.01,0.07 0.2,2.45 0.01,0.07 0.03,1.7 v 0.07 l -0.04,0.74 -0.01,0.04 -0.07,0.74 v 0.04 l -0.11,0.73 -0.01,0.04 -0.13,0.73 -0.01,0.04 -0.17,0.72 -0.01,0.04 -0.2,0.72 -0.01,0.04 -0.23,0.7 -0.02,0.04 -0.26,0.69 -0.02,0.07 -0.26,0.55 -0.04,0.07 -0.11,0.21 -0.02,0.03 -0.13,0.2 -0.02,0.04 -0.13,0.19 -0.03,0.04 -0.14,0.19 -0.02,0.03 -0.15,0.18 -0.03,0.03 -0.16,0.18 -0.03,0.03 -0.16,0.17 -0.03,0.03 -0.17,0.16 -0.03,0.03 -0.18,0.15 -0.04,0.03 -0.18,0.14 -0.03,0.03 -0.2,0.13 -0.03,0.03 -0.2,0.13 -0.03,0.02 -0.21,0.12 -0.09,0.05 -0.54,0.24 -0.06,0.02 -0.26,0.1 -0.04,0.02 -0.27,0.08 -0.04,0.01 -0.27,0.08 -0.04,0.01 -0.27,0.06 -0.04,0.01 -0.28,0.05 -0.04,0.01 -0.28,0.03 -0.04,0.01 -0.28,0.03 h -0.04 l -0.28,0.01 h -0.04 l -0.28,0.01 -0.05,-0.01 -0.28,-0.01 h -0.04 l -0.28,-0.02 v 0 l -1.63,-0.15 -0.08,-0.01 -0.59,-0.1 h -0.05 l -0.58,-0.13 -0.04,-0.01 -0.58,-0.15 -0.04,-0.01 -0.58,-0.18 -0.04,-0.02 -0.56,-0.2 -0.04,-0.01 -0.56,-0.23 -0.16,-0.08 -0.24,-0.16 -0.07,-0.05 -0.08,-0.06 -0.04,-0.03 -0.08,-0.07 -0.03,-0.03 -0.08,-0.07 -0.03,-0.03 -0.08,-0.08 -0.03,-0.03 -0.07,-0.08 -0.03,-0.03 -0.07,-0.09 -0.03,-0.03 -0.07,-0.09 -0.02,-0.03 -0.06,-0.09 -0.03,-0.04 -0.06,-0.09 -0.02,-0.04 -0.05,-0.09 -0.02,-0.04 -0.05,-0.1 -0.02,-0.03 -0.05,-0.1 -0.02,-0.04 -0.04,-0.1 -0.01,-0.04 -0.04,-0.11 -0.02,-0.05 -0.3,-1.03 -0.02,-0.07 -0.08,-0.42 -0.01,-0.04 -0.07,-0.42 v 0.02 l -0.05,-0.28 -0.01,-0.05 -1.05,-8.28 -0.01,-0.07 -0.19,-3.54 v -0.08 l 0.14,-5.79 v -0.08 l 0.24,-2.4 v -0.04 l 0.35,-2.39 v -0.04 l 0.45,-2.38 0.01,-0.04 0.54,-2.35 0.02,-0.04 0.65,-2.32 v -0.03 l 2.14,-7 h -0.01 l 3.05,-10.19 -0.01,0.05 2.42,-10.22 -0.02,0.07 0.15,-0.88 v 0 l 0.08,-0.53 0.02,-0.09 0.03,-0.11 c 0.11,-0.43 0.5,-0.73 0.95,-0.73 0.44,0 0.83,0.31 0.94,0.74 l 0.01,0.04 0.03,0.26 -0.31,10.63 v 0.03 l -0.11,1.82 v 0 l -0.05,0.88 v 0.01 l -1.44,21.55 v 0.06 l -2.71,21.19 -0.01,0.07 -1.11,5.49 0.02,-0.1 -0.02,0.13 c -0.05,0.54 -0.53,0.93 -1.06,0.88 -0.54,-0.05 -0.93,-0.53 -0.88,-1.06 z" /><path
       id="path44"
       style="fill:#000000;fill-opacity:1;fill-rule:evenodd;stroke:none"
       d="m 359.42,294.11 c 0,-0.54 -0.44,-0.97 -0.97,-0.97 -0.54,0 -0.98,0.43 -0.98,0.97 0,0.54 0.44,0.98 0.98,0.98 0.53,0 0.97,-0.44 0.97,-0.98 z" /><path
       id="path46"
       style="fill:#000000;fill-opacity:1;fill-rule:evenodd;stroke:none"
       d="m 333.46,265.68 c 0,-0.54 -0.44,-0.97 -0.98,-0.97 -0.54,0 -0.97,0.43 -0.97,0.97 0,0.54 0.43,0.98 0.97,0.98 0.54,0 0.98,-0.44 0.98,-0.98 z" /><path
       id="path48"
       style="fill:#00ff00;fill-opacity:1;fill-rule:evenodd;stroke:none"
       d="m 240.65,734.5 h 114.02 v 36.624 H 240.65 Z" /><g
       id="g50"><g
         clip-path="url(#clipPath56)"
         id="g52"><text
           id="text60"
           style="font-variant:normal;font-weight:bold;font-size:30px;font-family:Calibri;-inkscape-font-specification:Calibri-Bold;writing-mode:lr-tb;fill:#000000;fill-opacity:1;fill-rule:nonzero;stroke:none"
           transform="matrix(1,0,0,-1,240.65,742.54)"><tspan
             id="tspan58"
             y="0"
             x="0 14.85 29.49 43.68 58.529999 65.309998 81.269997 100.29">TEST PDF</tspan></text>
</g></g><g
       id="g62"><g
         clip-path="url(#clipPath68)"
         id="g64" /></g><g
       id="g70"><g
         clip-path="url(#clipPath76)"
         id="g72"><text
           id="text80"
           style="font-variant:normal;font-weight:bold;font-size:20.04000092px;font-family:Calibri;-inkscape-font-specification:Calibri-Bold;writing-mode:lr-tb;fill:#000000;fill-opacity:1;fill-rule:nonzero;stroke:none"
           transform="matrix(1,0,0,-1,85.104,704.5)"><tspan
             id="tspan78"
             y="0"
             x="0 12.64524 22.725361 32.524921 43.2864 53.36652 60.480721 65.009758">Header 1</tspan></text>
</g></g><g
       id="g82"><g
         clip-path="url(#clipPath88)"
         id="g84" /></g><path
       id="path90"
       style="fill:#000000;fill-opacity:1;fill-rule:evenodd;stroke:none"
       d="m 85.104,700.9 h 75.12 v 1.32 h -75.12 z" /><g
       id="g92"><g
         clip-path="url(#clipPath98)"
         id="g94"><text
           id="text102"
           style="font-variant:normal;font-weight:bold;font-size:15px;font-family:Calibri;-inkscape-font-specification:Calibri-Bold;writing-mode:lr-tb;fill:#000000;fill-opacity:1;fill-rule:nonzero;stroke:none"
           transform="matrix(1,0,0,-1,85.104,674.86)"><tspan
             id="tspan100"
             y="0"
             x="0 9.4650002 17.01 24.465 32.52 40.064999 45.345001 48.735001">Header 2</tspan></text>
</g></g><g
       id="g104"><g
         clip-path="url(#clipPath110)"
         id="g106" /></g><path
       id="path112"
       style="fill:#000000;fill-opacity:1;fill-rule:evenodd;stroke:none"
       d="m 85.104,672.22 h 56.4 v 0.95999 h -56.4 z" /><path
       id="path114"
       style="fill:#ffffff;fill-opacity:1;fill-rule:evenodd;stroke:none"
       d="m 85.104,649.3 h 383.47 v 12.12 H 85.104 Z" /><g
       id="g116"><g
         clip-path="url(#clipPath122)"
         id="g118"><text
           id="text126"
           style="font-variant:normal;font-weight:normal;font-size:10.56000042px;font-family:ArialMT;-inkscape-font-specification:ArialMT;writing-mode:lr-tb;fill:#000000;fill-opacity:1;fill-rule:nonzero;stroke:none"
           transform="matrix(1,0,0,-1,85.104,651.58)"><tspan
             id="tspan124"
             y="0"
             x="0 5.8713598 11.74272 15.2592 21.003839 29.874241 32.757118 35.038078 40.909439 46.189442 51.9552 60.8256 63.708481 69.463676 75.335037 77.732162 83.603523 87.120003 89.971199 95.13504 97.521599 100.40448 103.28736 109.04256 117.80736 123.67872 126.57216 129.45505 132.33792 137.61792 143.48927 149.36064 154.64064 160.51199 165.79201 168.72768 174.59904 177.4608 183.33215 186.84863 189.69984 195.5712 201.33696 203.72353 209.47871 211.86528 217.14528 222.30911 224.69568 230.45088 236.32224 239.21568 245.08704 247.48416 249.87073 252.7536 255.63647 258.51935 265.58401 271.3392 277.21057 283.08191 288.85825 294.72961 297.62305 303.49438 306.38785 309.27072 314.55072 320.42209 326.29343 331.46783 337.3392 342.6192 345.51263 351.384 354.27744 360.03265 363.51743 366.40033 372.27167 377.55167 380.44513 383.328">Lorem ipsum dolor sit amet, consectetur adipiscing elit. Aenean at consectetur est. </tspan></text>
</g></g><path
       id="path128"
       style="fill:#ffffff;fill-opacity:1;fill-rule:evenodd;stroke:none"
       d="m 85.104,636.22 h 423.31 v 12.12 H 85.104 Z" /><g
       id="g130"><g
         clip-path="url(#clipPath136)"
         id="g132"><text
           id="text140"
           style="font-variant:normal;font-weight:normal;font-size:10.56000042px;font-family:ArialMT;-inkscape-font-specification:ArialMT;writing-mode:lr-tb;fill:#000000;fill-opacity:1;fill-rule:nonzero;stroke:none"
           transform="matrix(1,0,0,-1,85.104,638.5)"><tspan
             id="tspan138"
             y="0"
             x="0 7.6665602 13.53792 17.054399 22.788481 28.65984 31.056959 33.939838 39.811199 43.327679 46.178879 51.458881 57.214081 63.085442 65.978882 68.259842 70.6464 76.517761 82.283524 84.670082 90.541443 93.434883 99.306236 102.19968 108.07104 111.58752 117.3216 122.48544 125.36832 134.23872 139.99393 142.38048 148.25185 153.41568 159.28703 165.1584 170.93472 176.80608 179.69952 184.97952 190.85088 193.1424 199.01376 201.9072 207.77856 213.64992 216.54337 219.42624 225.29761 231.16896 237.04031 239.82816 245.69952 251.57088 256.85089 259.74432 265.61569 269.13217 275.00351 280.28351 283.14529 286.02817 292.98721 298.85855 304.13855 307.03201 309.31296 315.18433 321.05569 323.35776 329.11295 337.98337 340.86624 346.73761 352.60895 355.50241 361.2576 364.14047 366.52704 372.39841 377.67841 383.44415 392.31458 395.19745 401.06879 404.43744 406.71841 415.58881 417.86975 423.14975">Curabitur sed ligula a eros malesuada volutpat non nec eros. Vestibulum ante ipsum primis </tspan></text>
</g></g><path
       id="path142"
       style="fill:#ffffff;fill-opacity:1;fill-rule:evenodd;stroke:none"
       d="m 85.104,623.26 h 390.55 v 12.12 H 85.104 Z" /><g
       id="g144"><g
         clip-path="url(#clipPath150)"
         id="g146"><text
           id="text154"
           style="font-variant:normal;font-weight:normal;font-size:10.56000042px;font-family:ArialMT;-inkscape-font-specification:ArialMT;writing-mode:lr-tb;fill:#000000;fill-opacity:1;fill-rule:nonzero;stroke:none"
           transform="matrix(1,0,0,-1,85.104,625.54)"><tspan
             id="tspan152"
             y="0"
             x="0 2.38656 8.2579203 11.15136 14.03424 19.9056 25.77696 30.951361 33.337921 39.209278 44.97504 50.255039 53.13792 59.009281 62.525761 67.805763 70.150078 72.93792 75.324478 81.195839 86.475838 89.369278 95.240639 100.52064 103.41408 109.28544 112.17888 115.06176 120.81696 123.20352 126.0864 129.5712 131.95776 137.23776 143.10912 148.38911 151.15584 157.02721 162.89856 168.17856 173.95488 179.82623 183.34271 189.21408 192.07584 197.35583 203.11104 208.98241 211.27393 213.66048 215.94144 221.81281 224.70624 229.98624 235.8576 239.22624 245.0976 250.96896 253.8624 256.74527 259.62817 265.49951 268.39297 274.26431 276.66144 282.53281 288.29855 294.16992 300.04129 305.8176 314.68799 317.57089 323.32608 325.71265 328.59552 332.08032 334.46689 339.63071 345.50208 350.78207 353.67551 355.95648">in faucibus orci luctus et ultrices posuere cubilia curae; In bibendum ultrices lo</tspan></text>
</g></g><g
       id="g156"><g
         clip-path="url(#clipPath162)"
         id="g158"><text
           id="text166"
           style="font-variant:normal;font-weight:normal;font-size:10.56000042px;font-family:ArialMT;-inkscape-font-specification:ArialMT;writing-mode:lr-tb;fill:#000000;fill-opacity:1;fill-rule:nonzero;stroke:none"
           transform="matrix(1,0,0,-1,446.98,625.54)"><tspan
             id="tspan164"
             y="0"
             x="0 5.8713598 11.74272 15.2592 18.12096 20.507521 25.787519 28.670401">bortis. </tspan></text>
</g></g><path
       id="path168"
       style="fill:#ffffff;fill-opacity:1;fill-rule:evenodd;stroke:none"
       d="m 85.104,610.18 h 399.43 V 622.3 H 85.104 Z" /><g
       id="g170"><g
         clip-path="url(#clipPath176)"
         id="g172"><text
           id="text180"
           style="font-variant:normal;font-weight:normal;font-size:10.56000042px;font-family:ArialMT;-inkscape-font-specification:ArialMT;writing-mode:lr-tb;fill:#000000;fill-opacity:1;fill-rule:nonzero;stroke:none"
           transform="matrix(1,0,0,-1,85.104,612.46)"><tspan
             id="tspan178"
             y="0"
             x="0 7.06464 9.3456001 11.73216 17.603519 23.36928 29.124479 37.994881 40.877762 46.749119 52.62048 55.51392 61.269119 63.655682 69.410881 71.79744 74.680321 80.551682 86.423042 92.294403 95.23008 100.96416 106.83552 110.352 116.22336 121.36608 124.24896 127.13184 134.7984 140.66975 143.06688 148.34688 151.22977 156.3936 162.26495 168.13632 173.41632 179.19264 181.4736 183.86015 186.24672 191.52672 194.40961 199.57344 205.44479 207.73631 213.60768 219.47903 222.37248 228.24384 231.13728 237.00864 239.90208 242.18304 248.0544 253.3344 256.22784 262.09921 267.37921 270.27264 273.15552 275.54208 281.41345 284.30688 290.06207 292.44864 294.72961 300.60095 306.47232 312.34369 315.27936 318.13055 324.00192 329.76767 332.15424 338.0256 341.54208 344.39328 346.67422 352.54559 355.43903 361.31039 364.67905 370.55042 376.31616 385.18655 388.06943 390.45599 396.32736 399.22079">Aliquam eu eleifend purus. Duis convallis vulputate lectus, in aliquet dolor interdum id. </tspan></text>
</g></g><path
       id="path182"
       style="fill:#ffffff;fill-opacity:1;fill-rule:evenodd;stroke:none"
       d="m 85.104,597.22 h 392.95 v 12.12 H 85.104 Z" /><g
       id="g184"><g
         clip-path="url(#clipPath190)"
         id="g186"><text
           id="text194"
           style="font-variant:normal;font-weight:normal;font-size:10.56000042px;font-family:ArialMT;-inkscape-font-specification:ArialMT;writing-mode:lr-tb;fill:#000000;fill-opacity:1;fill-rule:nonzero;stroke:none"
           transform="matrix(1,0,0,-1,85.104,599.5)"><tspan
             id="tspan192"
             y="0"
             x="0 7.6665602 13.53792 19.30368 25.175039 30.45504 33.34848 39.10368 41.490238 46.770241 49.653118 55.408321 64.278717 67.034882 75.905281 81.660477 84.047043 89.918404 95.082237 100.9536 106.82496 112.60128 118.47264 121.36608 126.64608 132.51744 136.03392 138.37823 144.16512 149.44511 152.328 155.21088 162.27551 165.1584 167.54495 173.30016 182.17056 185.05344 190.80864 193.19521 198.95039 201.33696 204.21983 210.0912 215.96255 221.83392 224.76961 230.64096 233.97792 239.25792 241.53888 244.42175 249.70177 255.57312 261.44449 266.72449 272.50079 274.88736 277.16833 279.55487 284.83487 287.71777 290.60065 293.48352 299.35489 304.63489 306.92639 309.31296 311.59393 316.87393 319.26047 324.54047 327.42337 333.17856 335.56512 341.32031 350.19073 352.94687 358.81824 361.10977 366.98111 369.37823 372.26111 378.13248 383.89825 389.76959 392.66302">Donec dictum malesuada varius. Etiam eleifend orci convallis, facilisis diam eleifend, </tspan></text>
</g></g><path
       id="path196"
       style="fill:#ffffff;fill-opacity:1;fill-rule:evenodd;stroke:none"
       d="m 85.104,584.14 h 358.51 v 12.12 H 85.104 Z" /><g
       id="g198"><g
         clip-path="url(#clipPath204)"
         id="g200"><text
           id="text208"
           style="font-variant:normal;font-weight:normal;font-size:10.56000042px;font-family:ArialMT;-inkscape-font-specification:ArialMT;writing-mode:lr-tb;fill:#000000;fill-opacity:1;fill-rule:nonzero;stroke:none"
           transform="matrix(1,0,0,-1,85.104,586.42)"><tspan
             id="tspan206"
             y="0"
             x="0 5.2800002 11.15136 13.44288 15.82944 18.110399 23.3904 25.77696 28.65984 34.5312 40.296959 42.683521 48.554878 51.321602 60.192001 66.063362 68.956802 74.711998 79.991997 82.874878 85.757759 88.64064 94.512001 97.405441 103.2768 109.14816 115.01952 118.536 121.40832 126.68832 132.55968 138.43105 141.32448 147.19585 152.96159 155.34816 161.21951 164.11296 169.86816 175.73952 178.13664 183.30048 185.68704 191.44225 197.3136 200.83008 203.68127 206.56416 211.84416 217.71552 226.51199 232.38336 238.25471 241.60223 244.48512 253.35551 259.22687 265.09824 268.47745 270.86401 276.14401 279.02689 284.89825 287.79169 290.67456 296.54593 302.41727 305.93375 308.79553 311.67841 314.06497">sollicitudin metus. Integer sed odio pulvinar, semper mauris a, porttit</tspan></text>
</g></g><g
       id="g210"><g
         clip-path="url(#clipPath216)"
         id="g212"><text
           id="text220"
           style="font-variant:normal;font-weight:normal;font-size:10.56000042px;font-family:ArialMT;-inkscape-font-specification:ArialMT;writing-mode:lr-tb;fill:#000000;fill-opacity:1;fill-rule:nonzero;stroke:none"
           transform="matrix(1,0,0,-1,402.19,586.42)"><tspan
             id="tspan218"
             y="0"
             x="0 5.8713598 9.3878403 12.23904 18.110399 23.98176 27.49824 33.242882">or purus</tspan></text>
</g></g><g
       id="g222"><g
         clip-path="url(#clipPath228)"
         id="g224"><text
           id="text232"
           style="font-variant:normal;font-weight:normal;font-size:10.56000042px;font-family:ArialMT;-inkscape-font-specification:ArialMT;writing-mode:lr-tb;fill:#000000;fill-opacity:1;fill-rule:nonzero;stroke:none"
           transform="matrix(1,0,0,-1,440.74,586.42)"><tspan
             id="tspan230"
             y="0"
             x="0">.</tspan></text>
</g></g><g
       id="g234"><g
         clip-path="url(#clipPath240)"
         id="g236" /></g><g
       id="g242"><g
         clip-path="url(#clipPath248)"
         id="g244" /></g><path
       id="path250"
       style="fill:#ffffff;fill-opacity:1;fill-rule:evenodd;stroke:none"
       d="m 85.104,542.11 h 383.47 v 12.12 H 85.104 Z" /><g
       id="g252"><g
         clip-path="url(#clipPath258)"
         id="g254"><text
           id="text262"
           style="font-variant:normal;font-weight:normal;font-size:10.56000042px;font-family:ArialMT;-inkscape-font-specification:ArialMT;writing-mode:lr-tb;fill:#000000;fill-opacity:1;fill-rule:nonzero;stroke:none"
           transform="matrix(1,0,0,-1,85.104,544.39)"><tspan
             id="tspan260"
             y="0"
             x="0 5.8713598 11.74272 15.2592 21.003839 29.874241 32.757118 35.038078 40.909439 46.189442 51.9552 60.8256 63.708481 69.463676 75.335037 77.732162 83.603523 87.120003 89.971199 95.13504 97.521599 100.40448 103.28736 109.04256 117.80736 123.67872 126.57216 129.45505 132.33792 137.61792 143.48927 149.36064 154.64064 160.51199 165.79201 168.72768 174.59904 177.4608 183.33215 186.84863 189.69984 195.5712 201.33696 203.72353 209.47871 211.86528 217.14528 222.30911 224.69568 230.45088 236.32224 239.21568 245.08704 247.48416 249.87073 252.7536 255.63647 258.51935 265.58401 271.3392 277.21057 283.08191 288.85825 294.72961 297.62305 303.49438 306.38785 309.27072 314.55072 320.42209 326.29343 331.46783 337.3392 342.6192 345.51263 351.384 354.27744 360.03265 363.51743 366.40033 372.27167 377.55167 380.44513 383.328">Lorem ipsum dolor sit amet, consectetur adipiscing elit. Aenean at consectetur est. </tspan></text>
</g></g><path
       id="path264"
       style="fill:#ffffff;fill-opacity:1;fill-rule:evenodd;stroke:none"
       d="m 85.104,529.03 h 423.31 v 12.12 H 85.104 Z" /><g
       id="g266"><g
         clip-path="url(#clipPath272)"
         id="g268"><text
           id="text276"
           style="font-variant:normal;font-weight:normal;font-size:10.56000042px;font-family:ArialMT;-inkscape-font-specification:ArialMT;writing-mode:lr-tb;fill:#000000;fill-opacity:1;fill-rule:nonzero;stroke:none"
           transform="matrix(1,0,0,-1,85.104,531.31)"><tspan
             id="tspan274"
             y="0"
             x="0 7.6665602 13.53792 17.054399 22.788481 28.65984 31.056959 33.939838 39.811199 43.327679 46.178879 51.458881 57.214081 63.085442 65.978882 68.259842 70.6464 76.517761 82.283524 84.670082 90.541443 93.434883 99.306236 102.19968 108.07104 111.58752 117.3216 122.48544 125.36832 134.23872 139.99393 142.38048 148.25185 153.41568 159.28703 165.1584 170.93472 176.80608 179.69952 184.97952 190.85088 193.1424 199.01376 201.9072 207.77856 213.64992 216.54337 219.42624 225.29761 231.16896 237.04031 239.82816">Curabitur sed ligula a eros malesuada volutpat non n</tspan></text>
</g></g><g
       id="g278"><g
         clip-path="url(#clipPath284)"
         id="g280"><text
           id="text288"
           style="font-variant:normal;font-weight:normal;font-size:10.56000042px;font-family:ArialMT;-inkscape-font-specification:ArialMT;writing-mode:lr-tb;fill:#000000;fill-opacity:1;fill-rule:nonzero;stroke:none"
           transform="matrix(1,0,0,-1,330.91,531.31)"><tspan
             id="tspan286"
             y="0"
             x="0 5.8713598 11.15136 14.0448 19.916161 23.43264 29.304001 34.584 37.445759">ec eros. </tspan></text>
</g></g><g
       id="g290"><g
         clip-path="url(#clipPath296)"
         id="g292"><text
           id="text300"
           style="font-variant:normal;font-weight:normal;font-size:10.56000042px;font-family:ArialMT;-inkscape-font-specification:ArialMT;writing-mode:lr-tb;fill:#000000;fill-opacity:1;fill-rule:nonzero;stroke:none"
           transform="matrix(1,0,0,-1,371.23,531.31)"><tspan
             id="tspan298"
             y="0"
             x="0 6.9590402 12.8304 18.110399 21.003839 23.2848 29.15616 35.027519 37.329601 43.084801 51.9552 54.838081 60.709438 66.580803 69.474243 75.229439 78.11232 80.498878 86.370239 91.650238 97.416 106.2864 109.16928 115.04064 118.40928 120.69024 129.56064 131.8416 137.1216">Vestibulum ante ipsum primis </tspan></text>
</g></g><path
       id="path302"
       style="fill:#ffffff;fill-opacity:1;fill-rule:evenodd;stroke:none"
       d="m 85.104,515.95 h 390.55 v 12.12 H 85.104 Z" /><g
       id="g304"><g
         clip-path="url(#clipPath310)"
         id="g306"><text
           id="text314"
           style="font-variant:normal;font-weight:normal;font-size:10.56000042px;font-family:ArialMT;-inkscape-font-specification:ArialMT;writing-mode:lr-tb;fill:#000000;fill-opacity:1;fill-rule:nonzero;stroke:none"
           transform="matrix(1,0,0,-1,85.104,518.23)"><tspan
             id="tspan312"
             y="0"
             x="0 2.38656 8.2579203 11.15136 14.03424 19.9056 25.77696 30.951361 33.337921 39.209278 44.97504 50.255039 53.13792 59.009281 62.525761 67.805763 70.150078 72.93792 75.324478 81.195839 86.475838 89.369278 95.240639 100.52064 103.41408 109.28544 112.17888 115.06176 120.81696 123.20352 126.0864 129.5712 131.95776 137.23776 143.10912 148.38911 151.15584 157.02721 162.89856 168.17856 173.95488 179.82623 183.34271 189.21408 192.07584 197.35583 203.11104 208.98241 211.27393 213.66048 215.94144 221.81281 224.70624 229.98624 235.8576 239.22624 245.0976 250.96896 253.8624 256.74527 259.62817 265.49951 268.39297 274.26431 276.66144 282.53281 288.29855 294.16992 300.04129 305.8176">in faucibus orci luctus et ultrices posuere cubilia curae; In bibendum</tspan></text>
</g></g><g
       id="g316"><g
         clip-path="url(#clipPath322)"
         id="g318" /></g><g
       id="g324"><g
         clip-path="url(#clipPath330)"
         id="g326"><text
           id="text334"
           style="font-variant:normal;font-weight:normal;font-size:10.56000042px;font-family:ArialMT;-inkscape-font-specification:ArialMT;writing-mode:lr-tb;fill:#000000;fill-opacity:1;fill-rule:nonzero;stroke:none"
           transform="matrix(1,0,0,-1,402.79,518.23)"><tspan
             id="tspan332"
             y="0"
             x="0 5.7551999 8.1417599 11.02464 14.50944 16.896 22.059839 27.9312 33.211201 36.104641 38.385601 44.1408 50.012161 55.883518 59.400002 62.261761 64.648323 69.928322 72.811203">ultrices lobortis. </tspan></text>
</g></g><path
       id="path336"
       style="fill:#ffffff;fill-opacity:1;fill-rule:evenodd;stroke:none"
       d="m 85.104,502.99 h 399.43 v 12.12 H 85.104 Z" /><g
       id="g338"><g
         clip-path="url(#clipPath344)"
         id="g340"><text
           id="text348"
           style="font-variant:normal;font-weight:normal;font-size:10.56000042px;font-family:ArialMT;-inkscape-font-specification:ArialMT;writing-mode:lr-tb;fill:#000000;fill-opacity:1;fill-rule:nonzero;stroke:none"
           transform="matrix(1,0,0,-1,85.104,505.27)"><tspan
             id="tspan346"
             y="0"
             x="0 7.06464 9.3456001 11.73216 17.603519 23.36928 29.124479 37.994881 40.877762 46.749119 52.62048">Aliquam eu </tspan></text>
</g></g><g
       id="g350"><g
         clip-path="url(#clipPath356)"
         id="g352"><text
           id="text360"
           style="font-variant:normal;font-weight:normal;font-size:10.56000042px;font-family:ArialMT;-inkscape-font-specification:ArialMT;writing-mode:lr-tb;fill:#000000;fill-opacity:1;fill-rule:nonzero;stroke:none"
           transform="matrix(1,0,0,-1,140.66,505.27)"><tspan
             id="tspan358"
             y="0"
             x="0 5.7551999 8.1417599 13.89696 16.28352 19.166401 25.03776 30.909121 36.780479 39.71616 45.450241 51.321602 54.838081 60.709438 65.852158 68.735039 71.61792 79.284477 85.155838 87.552963 92.832962 95.715843 100.87968 106.75104 112.6224 117.9024 123.67872 125.95968 128.34624 130.7328 136.0128 138.89568 144.05952 149.93088 152.2224 158.09377 163.96512 166.85857 172.72992 175.62337 181.49472 184.38815 186.66911 192.54048 197.82048 200.71391 206.58528 211.86528 214.75871 217.6416 220.02815 225.89952 228.79295 234.54816 236.93472 239.21568 245.08704 250.9584 256.82977 259.76544 262.61664 268.48801 274.25375 276.64032 282.51169 286.02817 288.87936 291.16031 297.03168 299.92511 305.79648 309.16513 315.03647 320.80225 329.67264 332.55551 334.94208 340.81345 343.70688">eleifend purus. Duis convallis vulputate lectus, in aliquet dolor interdum id. </tspan></text>
</g></g><path
       id="path362"
       style="fill:#ffffff;fill-opacity:1;fill-rule:evenodd;stroke:none"
       d="m 85.104,489.91 h 392.95 v 12.12 H 85.104 Z" /><g
       id="g364"><g
         clip-path="url(#clipPath370)"
         id="g366"><text
           id="text374"
           style="font-variant:normal;font-weight:normal;font-size:10.56000042px;font-family:ArialMT;-inkscape-font-specification:ArialMT;writing-mode:lr-tb;fill:#000000;fill-opacity:1;fill-rule:nonzero;stroke:none"
           transform="matrix(1,0,0,-1,85.104,492.19)"><tspan
             id="tspan372"
             y="0"
             x="0 7.6665602 13.53792 19.30368 25.175039 30.45504 33.34848 39.10368 41.490238 46.770241 49.653118 55.408321 64.278717 67.034882 75.905281 81.660477 84.047043 89.918404 95.082237 100.9536 106.82496 112.60128 118.47264 121.36608 126.64608 132.51744 136.03392 138.37823 144.16512 149.44511 152.328 155.21088 162.27551 165.1584 167.54495 173.30016 182.17056 185.05344 190.80864 193.19521 198.95039 201.33696 204.21983 210.0912 215.96255 221.83392 224.76961 230.64096 233.97792 239.25792 241.53888 244.42175 249.70177 255.57312 261.44449 266.72449 272.50079 274.88736 277.16833 279.55487 284.83487 287.71777 290.60065 293.48352 299.35489 304.63489 306.92639 309.31296 311.59393 316.87393 319.26047 324.54047 327.42337 333.17856 335.56512 341.32031 350.19073 352.94687 358.81824 361.10977 366.98111 369.37823 372.26111 378.13248 383.89825 389.76959 392.66302">Donec dictum malesuada varius. Etiam eleifend orci convallis, facilisis diam eleifend, </tspan></text>
</g></g><path
       id="path376"
       style="fill:#ffffff;fill-opacity:1;fill-rule:evenodd;stroke:none"
       d="m 85.104,476.83 h 358.51 v 12.24 H 85.104 Z" /><g
       id="g378"><g
         clip-path="url(#clipPath384)"
         id="g380"><text
           id="text388"
           style="font-variant:normal;font-weight:normal;font-size:10.56000042px;font-family:ArialMT;-inkscape-font-specification:ArialMT;writing-mode:lr-tb;fill:#000000;fill-opacity:1;fill-rule:nonzero;stroke:none"
           transform="matrix(1,0,0,-1,85.104,479.23)"><tspan
             id="tspan386"
             y="0"
             x="0 5.2800002 11.15136 13.44288 15.82944 18.110399 23.3904 25.77696 28.65984 34.5312 40.296959 42.683521 48.554878 51.321602 60.192001 66.063362 68.956802 74.711998 79.991997 82.874878 85.757759 88.64064 94.512001 97.405441 103.2768 109.14816 115.01952 118.536 121.40832 126.68832 132.55968 138.43105 141.32448 147.19585 152.96159 155.34816 161.21951 164.11296 169.86816 175.73952 178.13664 183.30048 185.68704 191.44225 197.3136 200.83008 203.68127 206.56416 211.84416 217.71552 226.51199 232.38336 238.25471 241.60223 244.48512 253.35551 259.22687 265.09824 268.47745">sollicitudin metus. Integer sed odio pulvinar, semper mauri</tspan></text>
</g></g><g
       id="g390"><g
         clip-path="url(#clipPath396)"
         id="g392"><text
           id="text400"
           style="font-variant:normal;font-weight:normal;font-size:10.56000042px;font-family:ArialMT;-inkscape-font-specification:ArialMT;writing-mode:lr-tb;fill:#000000;fill-opacity:1;fill-rule:nonzero;stroke:none"
           transform="matrix(1,0,0,-1,356.11,479.23)"><tspan
             id="tspan398"
             y="0"
             x="0 5.2800002 8.1628799 14.03424 16.927679 19.81056 25.681919 31.55328 35.069759 37.931519 40.8144 43.200958 46.083839 51.9552 55.47168 58.32288 64.194237 70.065598 73.582077 79.326721">s a, porttitor purus</tspan></text>
</g></g><g
       id="g402"><g
         clip-path="url(#clipPath408)"
         id="g404"><text
           id="text412"
           style="font-variant:normal;font-weight:normal;font-size:10.56000042px;font-family:ArialMT;-inkscape-font-specification:ArialMT;writing-mode:lr-tb;fill:#000000;fill-opacity:1;fill-rule:nonzero;stroke:none"
           transform="matrix(1,0,0,-1,440.74,479.23)"><tspan
             id="tspan410"
             y="0"
             x="0">.</tspan></text>
</g></g><g
       id="g414"><g
         clip-path="url(#clipPath420)"
         id="g416" /></g><g
       id="g422"><g
         clip-path="url(#clipPath428)"
         id="g424" /></g><g
       id="g430"><g
         clip-path="url(#clipPath436)"
         id="g432"><text
           id="text440"
           style="font-variant:normal;font-weight:normal;font-size:11.03999996px;font-family:Calibri;-inkscape-font-specification:Calibri;writing-mode:lr-tb;fill:#000000;fill-opacity:1;fill-rule:nonzero;stroke:none"
           transform="matrix(1,0,0,-1,85.104,435.07)"><tspan
             id="tspan438"
             y="0"
             x="0 6.3921599 12.38688">ART</tspan></text>
</g></g><g
       id="g442"><g
         clip-path="url(#clipPath448)"
         id="g444" /></g><g
       id="g450"><g
         clip-path="url(#clipPath456)"
         id="g452" /></g><g
       id="g458"><g
         clip-path="url(#clipPath464)"
         id="g460" /></g><g
       id="g466"><g
         clip-path="url(#clipPath472)"
         id="g468" /></g><g
       id="g474"><g
         clip-path="url(#clipPath480)"
         id="g476" /></g><g
       id="g482"><g
         clip-path="url(#clipPath488)"
         id="g484" /></g><g
       id="g490"><g
         clip-path="url(#clipPath496)"
         id="g492" /></g><g
       id="g498"><g
         clip-path="url(#clipPath504)"
         id="g500" /></g><g
       id="g506"><g
         clip-path="url(#clipPath512)"
         id="g508" /></g><g
       id="g514"><g
         clip-path="url(#clipPath520)"
         id="g516" /></g><g
       id="g522"><g
         clip-path="url(#clipPath528)"
         id="g524" /></g><g
       id="g530"><g
         clip-path="url(#clipPath536)"
         id="g532" /></g><g
       id="g538"><g
         clip-path="url(#clipPath544)"
         id="g540"><text
           id="text548"
           style="font-variant:normal;font-weight:normal;font-size:11.03999996px;font-family:Calibri;-inkscape-font-specification:Calibri;writing-mode:lr-tb;fill:#000000;fill-opacity:1;fill-rule:nonzero;stroke:none"
           transform="matrix(1,0,0,-1,85.104,165.14)"><tspan
             id="tspan546"
             y="0"
             x="0 5.0673599 10.90752 16.7808 20.379841 25.87776">Footer</tspan></text>
</g></g><g
       id="g550"><g
         clip-path="url(#clipPath556)"
         id="g552" /></g><path
       id="path558"
       style="fill:#000000;fill-opacity:1;fill-rule:evenodd;stroke:none"
       d="m 85.104,163.22 h 29.64 v 0.71997 h -29.64 z" /><g
       id="g560"><g
         clip-path="url(#clipPath566)"
         id="g562" /></g><path
       id="path568"
       style="fill:#ffffff;fill-opacity:1;fill-rule:evenodd;stroke:none"
       d="m 85.104,116.18 h 403.63 v 14.4 H 85.104 Z" /><g
       id="g570"><g
         clip-path="url(#clipPath576)"
         id="g572"><text
           id="text580"
           style="font-variant:normal;font-weight:normal;font-size:10.56000042px;font-family:'Open Sans';-inkscape-font-specification:'Open Sans';writing-mode:lr-tb;fill:#000000;fill-opacity:1;fill-rule:nonzero;stroke:none"
           transform="matrix(1,0,0,-1,85.104,119.3)"><tspan
             id="tspan578"
             y="0"
             x="0 5.51232 11.89056 16.199039 21.954241 31.77504 34.541759 37.21344 43.686722 48.586559 55.0704 64.891197 67.541763 74.015038 80.39328 83.02272 89.400963 93.582718 96.328323 101.36544 104.03712 107.7648 110.5104 116.2656 126.0864 132.01056 135.70656 138.336 140.976 146.00256 152.3808 158.86464 163.90176 169.65697 174.68352 178.41119 184.29312 188.0208 194.50464 198.69696 201.44257 207.31392 213.7872 216.33215 222.80544 225.47713 230.51424 235.5408 238.05408 244.53792 250.3248 253.0704 258.93121 261.60287 264.21121 267.93887 270.69504 273.44064 280.16736 286.04929 292.53311 298.40448 304.15967 310.64352 313.38913 319.26047 322.88257 325.62817 330.65472 337.03296 343.40063 348.43777 354.31967 359.24063 362.96832 368.83969 372.56735 379.05121 383.35968 386.10529 392.02945 397.06656 400.76257 403.51871">Lorem ipsum dolor sit amet, consectetur adipiscing elit. Aenean at consectetur est. </tspan></text>
</g></g><path
       id="path582"
       style="fill:#ffffff;fill-opacity:1;fill-rule:evenodd;stroke:none"
       d="m 85.104,100.7 h 412.75 v 14.52 H 85.104 Z" /><g
       id="g584"><g
         clip-path="url(#clipPath590)"
         id="g586"><text
           id="text594"
           style="font-variant:normal;font-weight:normal;font-size:10.56000042px;font-family:'Open Sans';-inkscape-font-specification:'Open Sans';writing-mode:lr-tb;fill:#000000;fill-opacity:1;fill-rule:nonzero;stroke:none"
           transform="matrix(1,0,0,-1,85.104,103.94)"><tspan
             id="tspan592"
             y="0"
             x="0 6.7055998 13.18944 17.38176 23.25312 29.7264 32.398079 36.125759 42.461761 46.770241 49.515839 54.552959 60.477119 66.823677 69.569283 72.240959 74.85984 80.646721 87.130562 89.738876 95.610237 98.260803 104.13216 106.87776 112.80192 116.98368 123.36192 128.39903 131.14464 140.85983 146.7312 149.40288 155.26369 160.3008 166.78464 172.53984 179.01312 184.88448 187.63008 192.81503 199.19328 201.81216 208.29601 212.02368 218.37024 224.24159 227.96928 230.71487 237.09312 243.47136 249.9552 252.70081 259.18463 265.056 269.97696 272.72256 278.64673 282.9552 289.30176 294.33887 297.10559 299.8512 306.1344 311.98465 317.02176 320.74945 323.26273 329.73599 336.21985 338.89151 345.22751 355.04831 357.70944 363.58081 370.06464 373.79233 379.67422 382.41983 385.09152 391.56479 396.47519 402.95905 412.67422">Curabitur sed ligula a eros malesuada volutpat non nec eros. Vestibulum ante ipsum </tspan></text>
</g></g><g
       id="g596"><g
         clip-path="url(#clipPath602)"
         id="g598" /></g></g></svg>