<?xml version="1.0" encoding="UTF-8" standalone="no"?>
<svg
   xmlns:dc="http://purl.org/dc/elements/1.1/"
   xmlns:cc="http://creativecommons.org/ns#"
   xmlns:rdf="http://www.w3.org/1999/02/22-rdf-syntax-ns#"
   xmlns:svg="http://www.w3.org/2000/svg"
   xmlns="http://www.w3.org/2000/svg"
   viewBox="0 0 793.76001 1122.5601"
   height="1122.5601"
   width="793.76001"
   xml:space="preserve"
   id="svg2"
   version="1.1"><metadata
     id="metadata8"><rdf:RDF><cc:Work
         rdf:about=""><dc:format>image/svg+xml</dc:format><dc:type
           rdf:resource="http://purl.org/dc/dcmitype/StillImage" /></cc:Work></rdf:RDF></metadata><defs
     id="defs6"><clipPath
       id="clipPath42"
       clipPathUnits="userSpaceOnUse"><path
         style="clip-rule:evenodd"
         id="path40"
         d="M 8.871e-6,0 H 595.32001 V 841.92 H 8.871e-6 Z" /></clipPath><clipPath
       id="clipPath50"
       clipPathUnits="userSpaceOnUse"><path
         style="clip-rule:evenodd"
         id="path48"
         d="M 8.871e-6,0 H 595.32001 V 841.92 H 8.871e-6 Z" /></clipPath><clipPath
       id="clipPath58"
       clipPathUnits="userSpaceOnUse"><path
         style="clip-rule:evenodd"
         id="path56"
         d="M 8.871e-6,0 H 595.32001 V 841.92 H 8.871e-6 Z" /></clipPath><clipPath
       id="clipPath66"
       clipPathUnits="userSpaceOnUse"><path
         style="clip-rule:evenodd"
         id="path64"
         d="M 8.871e-6,0 H 595.32001 V 841.92 H 8.871e-6 Z" /></clipPath><clipPath
       id="clipPath74"
       clipPathUnits="userSpaceOnUse"><path
         style="clip-rule:evenodd"
         id="path72"
         d="M 8.871e-6,0 H 595.32001 V 841.92 H 8.871e-6 Z" /></clipPath></defs><g
     transform="matrix(1.3333333,0,0,-1.3333333,0,1122.56)"
     id="g10"><path
       id="path12"
       style="fill:#c0c0c0;fill-opacity:0.50196001;fill-rule:evenodd;stroke:none"
       d="m 155.28,245.79 c 0.5,-0.5 0.91,-0.91 1.24,-1.3 0.34,-0.4 0.63,-0.75 0.87,-1.05 0.22,-0.34 0.38,-0.62 0.52,-0.94 0.15,-0.32 0.24,-0.67 0.36,-1.19 0.11,-0.54 0.13,-1.41 0.11,-2.63 0.02,-1.27 -0.22,-2.66 -0.55,-4.18 -0.35,-1.56 -0.95,-3.14 -1.72,-4.82 -0.8,-1.65 -1.98,-3.17 -3.45,-4.64 -2.51,-2.51 -5.41,-4.18 -8.7,-4.88 -3.33,-0.73 -6.93,-0.67 -10.84,0.47 -3.93,1.1 -8.11,2.99 -12.53,5.95 -4.42,2.89 -9.01,6.67 -13.79,11.45 -4.88,4.88 -8.812,9.68 -11.825,14.33 -3.03,4.63 -5.046,9.06 -6.277,13.23 -1.179,4.13 -1.315,7.93 -0.666,11.45 0.621,3.48 2.278,6.47 4.824,9.02 1.105,1.1 2.346,2.08 3.719,2.81 1.372,0.72 2.762,1.31 4.165,1.7 1.4,0.38 2.75,0.67 4.08,0.71 1.33,0.03 2.34,0.06 3.01,-0.09 0.69,-0.14 1.15,-0.3 1.47,-0.44 0.32,-0.14 0.61,-0.31 0.94,-0.52 0.35,-0.29 0.73,-0.54 1.17,-0.93 0.44,-0.38 0.9,-0.83 1.44,-1.38 0.59,-0.59 1.11,-1.17 1.49,-1.61 0.35,-0.47 0.65,-0.9 0.84,-1.25 0.23,-0.41 0.32,-0.69 0.37,-0.92 0.02,-0.25 -0.04,-0.49 -0.19,-0.64 -0.28,-0.27 -0.98,-0.35 -2.08,-0.26 -1.11,0.1 -2.37,0.07 -3.88,0.04 -1.49,-0.11 -3.13,-0.41 -4.86,-0.94 -1.73,-0.54 -3.35,-1.62 -4.941,-3.21 -1.737,-1.73 -2.848,-3.83 -3.184,-6.28 -0.33,-2.46 -0.062,-5.25 1.026,-8.27 1.082,-3.03 2.729,-6.29 5.119,-9.73 2.4,-3.52 5.45,-7.13 9.23,-10.91 3.74,-3.74 7.29,-6.73 10.7,-9.08 3.37,-2.37 6.57,-3.97 9.47,-4.92 2.94,-1 5.6,-1.21 8.03,-0.72 2.44,0.41 4.58,1.58 6.41,3.41 1.52,1.53 2.62,3.14 3.18,4.91 0.56,1.76 0.94,3.38 1.01,4.92 0.1,1.49 0.15,2.79 0.06,3.89 -0.09,1.1 0.07,1.79 0.36,2.09 0.16,0.15 0.31,0.23 0.5,0.22 0.18,0 0.45,-0.09 0.74,-0.26 0.33,-0.21 0.76,-0.51 1.24,-0.94 0.49,-0.43 1.11,-0.99 1.79,-1.67 z" /><path
       id="path14"
       style="fill:#c0c0c0;fill-opacity:0.50196001;fill-rule:evenodd;stroke:none"
       d="m 172.75,306.9 c 4.78,-4.78 8.69,-9.43 11.79,-14 3.09,-4.56 5.19,-8.89 6.45,-13.04 1.26,-4.15 1.43,-8.1 0.66,-11.73 -0.73,-3.69 -2.61,-6.98 -5.57,-9.95 -2.91,-2.9 -6.05,-4.81 -9.56,-5.54 -3.45,-0.78 -7.14,-0.69 -11.01,0.47 -3.9,1.13 -8.08,3.21 -12.49,6.26 -4.42,3.07 -9.04,7 -13.92,11.88 -4.65,4.65 -8.51,9.26 -11.55,13.78 -3.05,4.51 -5.13,8.88 -6.38,13.03 -1.22,4.09 -1.34,8.01 -0.62,11.68 0.78,3.64 2.66,6.94 5.62,9.9 2.85,2.85 5.96,4.72 9.42,5.5 3.45,0.77 7.09,0.74 10.99,-0.39 3.91,-1.13 8.08,-3.14 12.44,-6.15 4.37,-3.02 8.95,-6.91 13.73,-11.7 z m -4.9,-6 c -3.33,3.33 -6.66,6.29 -9.91,8.78 -3.26,2.48 -6.39,4.26 -9.42,5.53 -3.02,1.18 -5.86,1.57 -8.58,1.26 -2.71,-0.32 -5.16,-1.61 -7.41,-3.86 -2.24,-2.24 -3.48,-4.73 -3.71,-7.54 -0.22,-2.8 0.18,-5.73 1.42,-8.78 1.21,-3.09 2.95,-6.26 5.39,-9.46 2.49,-3.26 5.23,-6.44 8.38,-9.58 3.46,-3.47 6.84,-6.47 10.13,-9 3.27,-2.57 6.42,-4.41 9.41,-5.63 3.03,-1.26 5.87,-1.66 8.54,-1.29 2.69,0.28 5.16,1.6 7.44,3.88 2.24,2.25 3.55,4.8 3.77,7.6 0.23,2.81 -0.19,5.8 -1.47,8.91 -1.24,3.06 -3.03,6.27 -5.51,9.52 -2.49,3.25 -5.28,6.48 -8.47,9.66 z" /><path
       id="path16"
       style="fill:#c0c0c0;fill-opacity:0.50196001;fill-rule:evenodd;stroke:none"
       d="m 237.11,317.41 c 0.59,-0.59 1.07,-1.2 1.34,-1.75 0.27,-0.56 0.44,-1.11 0.51,-1.59 0.07,-0.48 0,-0.9 -0.13,-1.31 -0.12,-0.41 -0.36,-0.72 -0.62,-0.99 -0.57,-0.57 -1.14,-1.14 -1.71,-1.71 -0.54,-0.54 -1.11,-0.93 -1.68,-1.13 -0.53,-0.25 -1.24,-0.34 -2.05,-0.23 -0.77,0.06 -1.72,0.27 -2.86,0.7 -1.12,0.42 -2.48,0.97 -4.08,1.75 -15.07,7.32 -30.28,14.37 -45.36,21.7 -2.36,1.12 -4.79,2.31 -7.32,3.61 -2.5,1.25 -4.95,2.52 -7.25,3.78 -0.02,-0.03 -0.04,-0.04 -0.06,-0.07 2.21,-2.15 4.48,-4.35 6.78,-6.6 2.31,-2.25 4.59,-4.53 6.82,-6.76 11.86,-11.86 23.72,-23.72 35.58,-35.58 0.23,-0.23 0.38,-0.44 0.47,-0.71 0.15,-0.32 0.13,-0.61 0.01,-0.91 -0.06,-0.35 -0.22,-0.68 -0.46,-1.1 -0.28,-0.37 -0.66,-0.84 -1.16,-1.34 -0.52,-0.52 -0.94,-0.86 -1.32,-1.14 -0.43,-0.24 -0.78,-0.42 -1.1,-0.46 -0.3,-0.12 -0.56,-0.11 -0.88,0.04 -0.27,0.09 -0.48,0.24 -0.71,0.47 -18.13,18.13 -36.26,36.26 -54.39,54.4 -1.23,1.23 -1.85,2.33 -1.91,3.28 -0.06,0.95 0.15,1.71 0.69,2.24 0.83,0.84 1.68,1.68 2.51,2.52 0.6,0.6 1.21,1.02 1.76,1.3 0.53,0.24 1.16,0.34 1.8,0.34 0.7,-0.04 1.51,-0.22 2.39,-0.53 0.94,-0.34 2.02,-0.8 3.3,-1.44 11.62,-5.67 23.34,-11.13 34.96,-16.8 2.15,-1.04 4.2,-1.97 6.24,-2.95 2.01,-1.01 4.03,-1.98 5.97,-2.97 1.93,-0.99 3.83,-1.9 5.71,-2.85 1.86,-0.97 3.81,-1.92 5.69,-2.88 0.02,0.02 0.03,0.03 0.04,0.04 -2.44,2.38 -4.98,4.86 -7.58,7.45 -2.63,2.57 -5.09,5.03 -7.5,7.45 -10.66,10.66 -21.33,21.32 -31.99,31.98 -0.23,0.23 -0.38,0.44 -0.47,0.72 -0.1,0.26 -0.15,0.56 -0.08,0.92 0.07,0.34 0.26,0.7 0.53,1.08 0.28,0.37 0.66,0.84 1.17,1.34 0.45,0.45 0.91,0.83 1.29,1.11 0.38,0.28 0.73,0.47 1.08,0.54 0.32,0.03 0.65,0.01 0.92,-0.09 0.27,-0.09 0.48,-0.24 0.71,-0.47 18.13,-18.13 36.27,-36.27 54.4,-54.4 z" /><path
       id="path18"
       style="fill:#c0c0c0;fill-opacity:0.50196001;fill-rule:evenodd;stroke:none"
       d="m 215.43,400.43 c 0.59,-0.59 1.06,-1.12 1.45,-1.56 0.37,-0.44 0.65,-0.9 0.79,-1.21 0.18,-0.37 0.24,-0.67 0.26,-0.93 -0.01,-0.28 -0.09,-0.45 -0.24,-0.6 -4.73,-4.73 -9.46,-9.46 -14.19,-14.19 6.68,-6.68 13.37,-13.37 20.05,-20.05 4.47,4.47 8.94,8.94 13.41,13.42 0.15,0.15 0.32,0.22 0.56,0.28 0.25,-0.02 0.55,-0.08 0.87,-0.22 0.32,-0.14 0.73,-0.36 1.17,-0.75 0.44,-0.38 1.02,-0.9 1.65,-1.53 0.6,-0.6 1.02,-1.08 1.4,-1.52 0.39,-0.44 0.65,-0.9 0.8,-1.21 0.18,-0.37 0.24,-0.67 0.26,-0.92 -0.01,-0.29 -0.04,-0.5 -0.19,-0.65 -4.48,-4.47 -8.95,-8.94 -13.42,-13.42 8.19,-8.18 16.37,-16.36 24.55,-24.55 0.23,-0.23 0.38,-0.44 0.48,-0.71 0.13,-0.32 0.15,-0.58 0.03,-0.88 -0.06,-0.35 -0.22,-0.68 -0.46,-1.1 -0.27,-0.37 -0.65,-0.83 -1.16,-1.34 -0.49,-0.49 -0.94,-0.86 -1.32,-1.14 -0.42,-0.24 -0.78,-0.42 -1.13,-0.49 -0.3,-0.12 -0.56,-0.1 -0.88,0.03 -0.27,0.1 -0.48,0.25 -0.71,0.48 -18.19,18.19 -36.38,36.38 -54.58,54.58 -1.18,1.18 -1.78,2.21 -1.87,3.13 -0.08,0.84 0.15,1.53 0.6,1.98 5.81,5.8 11.62,11.61 17.43,17.42 0.15,0.16 0.32,0.23 0.6,0.24 0.26,-0.02 0.56,-0.08 0.92,-0.26 0.36,-0.19 0.82,-0.46 1.26,-0.84 0.49,-0.42 1.02,-0.9 1.61,-1.49 z" /><path
       id="path20"
       style="fill:#c0c0c0;fill-opacity:0.50196001;fill-rule:evenodd;stroke:none"
       d="m 282.8,359 c 0.22,-0.23 0.42,-0.49 0.51,-0.76 0.09,-0.27 0.11,-0.53 -0.01,-0.83 -0.06,-0.34 -0.22,-0.68 -0.45,-1.09 -0.28,-0.38 -0.66,-0.84 -1.17,-1.35 -0.48,-0.48 -0.94,-0.86 -1.32,-1.14 -0.42,-0.24 -0.78,-0.42 -1.13,-0.49 -0.3,-0.12 -0.56,-0.1 -0.83,-0.01 -0.27,0.1 -0.53,0.29 -0.76,0.52 -18.86,18.85 -37.72,37.72 -56.58,56.58 -0.23,0.23 -0.4,0.52 -0.49,0.79 -0.09,0.27 -0.07,0.56 0,0.91 0.11,0.29 0.3,0.65 0.53,1.08 0.28,0.37 0.63,0.81 1.08,1.26 0.51,0.51 0.97,0.88 1.35,1.17 0.42,0.22 0.75,0.38 1.05,0.5 0.35,0.07 0.6,0.06 0.87,-0.04 0.27,-0.09 0.53,-0.29 0.76,-0.51 18.86,-18.87 37.73,-37.73 56.59,-56.59 z" /><path
       id="path22"
       style="fill:#c0c0c0;fill-opacity:0.50196001;fill-rule:evenodd;stroke:none"
       d="m 293.74,428.26 c 5.1,-5.11 9.12,-10 12.06,-14.64 2.98,-4.68 4.84,-9.07 5.73,-13.21 0.9,-4.16 0.71,-8.1 -0.43,-11.74 -1.13,-3.64 -3.37,-7.1 -6.7,-10.43 -2.73,-2.73 -5.46,-5.47 -8.2,-8.21 -0.45,-0.44 -1.13,-0.67 -2.02,-0.55 -0.87,0.03 -1.9,0.64 -3.09,1.83 -17.52,17.52 -35.05,35.05 -52.57,52.57 -1.19,1.19 -1.78,2.22 -1.88,3.14 -0.07,0.84 0.16,1.52 0.6,1.97 2.93,2.92 5.86,5.85 8.78,8.77 3.35,3.36 6.83,5.6 10.47,6.55 3.63,0.95 7.49,1.05 11.53,0.14 4.06,-0.99 8.28,-2.74 12.59,-5.45 4.3,-2.72 8.71,-6.32 13.13,-10.74 z m -5.1,-5.74 c -3.19,3.19 -6.43,5.87 -9.71,8.15 -3.23,2.23 -6.43,3.76 -9.53,4.68 -3.11,0.92 -6.07,1.01 -8.92,0.47 -2.85,-0.54 -5.58,-2.2 -8.24,-4.87 -1.75,-1.75 -3.5,-3.5 -5.25,-5.24 15.3,-15.3 30.59,-30.59 45.88,-45.88 1.77,1.77 3.54,3.54 5.3,5.3 2.49,2.48 4.13,5 4.85,7.67 0.73,2.67 0.77,5.49 -0.07,8.58 -0.85,3.09 -2.36,6.39 -4.76,9.91 -2.36,3.48 -5.54,7.22 -9.55,11.23 z" /><path
       id="path24"
       style="fill:#c0c0c0;fill-opacity:0.50196001;fill-rule:evenodd;stroke:none"
       d="m 350.35,430.65 c 0.54,-0.54 0.97,-1.03 1.35,-1.47 0.38,-0.44 0.65,-0.9 0.83,-1.26 0.19,-0.36 0.25,-0.67 0.27,-0.92 -0.01,-0.29 -0.12,-0.48 -0.27,-0.63 -6.2,-6.2 -12.39,-12.4 -18.6,-18.6 -0.45,-0.45 -1.12,-0.68 -2.01,-0.56 -0.87,0.04 -1.91,0.65 -3.1,1.83 -17.52,17.53 -35.05,35.05 -52.57,52.57 -1.18,1.19 -1.78,2.22 -1.87,3.14 -0.08,0.84 0.15,1.52 0.6,1.97 6.13,6.13 12.26,12.26 18.39,18.39 0.15,0.15 0.35,0.26 0.63,0.27 0.26,-0.03 0.53,-0.11 0.89,-0.29 0.36,-0.19 0.75,-0.44 1.21,-0.8 0.44,-0.38 1.02,-0.9 1.61,-1.49 0.55,-0.55 0.97,-1.03 1.36,-1.47 0.35,-0.47 0.65,-0.89 0.79,-1.21 0.18,-0.36 0.27,-0.64 0.29,-0.89 0,-0.29 -0.12,-0.48 -0.26,-0.63 -5.06,-5.05 -10.11,-10.11 -15.16,-15.16 6.17,-6.17 12.33,-12.33 18.5,-18.5 4.33,4.34 8.66,8.67 13,13 0.14,0.15 0.34,0.26 0.63,0.27 0.25,-0.02 0.6,-0.13 0.92,-0.26 0.31,-0.15 0.74,-0.45 1.18,-0.83 0.44,-0.38 0.97,-0.85 1.57,-1.44 0.54,-0.55 0.97,-1.03 1.35,-1.48 0.38,-0.43 0.63,-0.82 0.78,-1.13 0.13,-0.32 0.19,-0.62 0.17,-0.83 -0.01,-0.29 -0.12,-0.48 -0.27,-0.63 -4.34,-4.34 -8.66,-8.66 -13,-13 7.03,-7.03 14.06,-14.06 21.09,-21.09 5.12,5.12 10.24,10.24 15.37,15.37 0.15,0.14 0.34,0.25 0.62,0.26 0.27,-0.02 0.57,-0.08 0.88,-0.22 0.37,-0.19 0.78,-0.41 1.21,-0.79 0.44,-0.38 1.02,-0.89 1.62,-1.49 z" /><path
       id="path26"
       style="fill:#c0c0c0;fill-opacity:0.50196001;fill-rule:evenodd;stroke:none"
       d="m 388.02,468.33 c 0.59,-0.59 1.08,-1.2 1.34,-1.76 0.27,-0.57 0.44,-1.11 0.51,-1.59 0.07,-0.48 0,-0.91 -0.13,-1.31 -0.12,-0.41 -0.36,-0.72 -0.63,-0.99 -0.56,-0.57 -1.13,-1.14 -1.7,-1.71 -0.54,-0.54 -1.11,-0.93 -1.68,-1.13 -0.53,-0.25 -1.23,-0.33 -2.05,-0.23 -0.77,0.06 -1.72,0.27 -2.86,0.7 -1.13,0.42 -2.48,0.97 -4.08,1.75 -15.07,7.32 -30.28,14.37 -45.36,21.7 -2.36,1.11 -4.79,2.3 -7.32,3.61 -2.5,1.25 -4.94,2.52 -7.25,3.77 -0.03,-0.02 -0.04,-0.03 -0.07,-0.06 2.22,-2.15 4.49,-4.35 6.79,-6.6 2.31,-2.25 4.59,-4.53 6.82,-6.76 11.86,-11.86 23.72,-23.73 35.58,-35.58 0.23,-0.23 0.38,-0.44 0.47,-0.72 0.14,-0.31 0.13,-0.6 0.01,-0.9 -0.07,-0.35 -0.22,-0.67 -0.46,-1.1 -0.28,-0.38 -0.66,-0.84 -1.17,-1.35 -0.5,-0.5 -0.94,-0.86 -1.32,-1.13 -0.41,-0.24 -0.77,-0.43 -1.09,-0.46 -0.3,-0.12 -0.56,-0.11 -0.88,0.03 -0.27,0.1 -0.48,0.25 -0.71,0.48 -18.13,18.13 -36.26,36.26 -54.4,54.39 -1.23,1.23 -1.84,2.34 -1.9,3.29 -0.06,0.95 0.15,1.7 0.69,2.24 0.84,0.84 1.67,1.68 2.51,2.52 0.6,0.59 1.2,1.02 1.76,1.29 0.53,0.26 1.16,0.35 1.81,0.36 0.69,-0.05 1.5,-0.24 2.38,-0.53 0.94,-0.36 2.02,-0.81 3.3,-1.44 11.61,-5.68 23.34,-11.14 34.95,-16.81 2.16,-1.04 4.21,-1.98 6.25,-2.96 2.01,-1 4.03,-1.97 5.96,-2.96 1.94,-0.99 3.84,-1.9 5.73,-2.85 1.85,-0.97 3.8,-1.93 5.69,-2.87 0.01,0.01 0.02,0.01 0.03,0.03 -2.45,2.38 -4.99,4.85 -7.58,7.45 -2.63,2.57 -5.09,5.03 -7.5,7.45 -10.67,10.66 -21.33,21.32 -31.99,31.98 -0.23,0.23 -0.38,0.45 -0.47,0.71 -0.09,0.28 -0.15,0.57 -0.08,0.93 0.07,0.34 0.25,0.7 0.53,1.08 0.29,0.37 0.66,0.84 1.17,1.35 0.45,0.45 0.91,0.82 1.29,1.1 0.38,0.28 0.73,0.46 1.08,0.54 0.32,0.03 0.65,0.01 0.92,-0.08 0.27,-0.1 0.49,-0.25 0.71,-0.47 18.14,-18.14 36.27,-36.27 54.4,-54.4 z" /><path
       id="path28"
       style="fill:#c0c0c0;fill-opacity:0.50196001;fill-rule:evenodd;stroke:none"
       d="m 419.1,509.6 c 0.5,-0.49 0.91,-0.9 1.24,-1.3 0.33,-0.4 0.62,-0.74 0.87,-1.04 0.22,-0.34 0.38,-0.63 0.52,-0.94 0.14,-0.32 0.24,-0.67 0.35,-1.2 0.12,-0.53 0.14,-1.4 0.11,-2.62 0.03,-1.28 -0.22,-2.67 -0.54,-4.19 -0.35,-1.56 -0.95,-3.13 -1.72,-4.81 -0.8,-1.65 -1.98,-3.17 -3.45,-4.64 -2.52,-2.52 -5.42,-4.19 -8.71,-4.89 -3.32,-0.73 -6.92,-0.66 -10.83,0.48 -3.94,1.1 -8.12,2.99 -12.54,5.94 -4.42,2.89 -9.01,6.67 -13.79,11.46 -4.88,4.87 -8.81,9.68 -11.82,14.33 -3.03,4.62 -5.05,9.05 -6.27,13.23 -1.18,4.12 -1.32,7.93 -0.67,11.45 0.62,3.48 2.27,6.46 4.82,9.01 1.11,1.11 2.35,2.09 3.72,2.81 1.37,0.72 2.76,1.32 4.17,1.71 1.4,0.38 2.75,0.67 4.07,0.7 1.34,0.04 2.34,0.06 3.02,-0.08 0.68,-0.15 1.15,-0.31 1.47,-0.45 0.31,-0.13 0.6,-0.3 0.93,-0.52 0.35,-0.29 0.73,-0.54 1.17,-0.92 0.44,-0.39 0.9,-0.84 1.45,-1.38 0.59,-0.6 1.1,-1.18 1.49,-1.61 0.35,-0.47 0.65,-0.9 0.83,-1.26 0.24,-0.41 0.32,-0.69 0.37,-0.91 0.02,-0.26 -0.04,-0.49 -0.19,-0.65 -0.27,-0.27 -0.97,-0.35 -2.08,-0.25 -1.1,0.09 -2.36,0.07 -3.87,0.04 -1.49,-0.11 -3.13,-0.41 -4.87,-0.94 -1.73,-0.54 -3.35,-1.63 -4.94,-3.22 -1.73,-1.73 -2.84,-3.82 -3.18,-6.27 -0.33,-2.47 -0.06,-5.25 1.02,-8.28 1.09,-3.02 2.74,-6.29 5.12,-9.73 2.41,-3.52 5.45,-7.13 9.23,-10.91 3.74,-3.73 7.29,-6.73 10.7,-9.08 3.37,-2.37 6.58,-3.97 9.48,-4.92 2.94,-0.99 5.59,-1.21 8.02,-0.72 2.45,0.41 4.59,1.59 6.42,3.42 1.52,1.52 2.61,3.13 3.17,4.91 0.57,1.76 0.95,3.38 1.01,4.91 0.11,1.5 0.16,2.8 0.06,3.89 -0.09,1.11 0.07,1.79 0.37,2.1 0.15,0.14 0.31,0.22 0.49,0.22 0.19,0 0.46,-0.09 0.74,-0.26 0.33,-0.22 0.76,-0.52 1.25,-0.95 0.49,-0.42 1.11,-0.98 1.79,-1.67 z" /><path
       id="path30"
       style="fill:#c0c0c0;fill-opacity:0.50196001;fill-rule:evenodd;stroke:none"
       d="m 438.23,514.43 c 0.22,-0.23 0.42,-0.48 0.51,-0.76 0.1,-0.26 0.11,-0.53 0,-0.82 -0.07,-0.35 -0.22,-0.68 -0.46,-1.1 -0.28,-0.38 -0.66,-0.84 -1.17,-1.35 -0.48,-0.48 -0.94,-0.86 -1.32,-1.14 -0.42,-0.23 -0.78,-0.42 -1.13,-0.49 -0.3,-0.11 -0.56,-0.1 -0.83,-0.01 -0.27,0.1 -0.53,0.3 -0.75,0.52 -18.86,18.86 -37.72,37.72 -56.59,56.59 -0.23,0.23 -0.39,0.52 -0.49,0.78 -0.09,0.28 -0.07,0.56 0,0.91 0.12,0.3 0.3,0.65 0.53,1.08 0.29,0.38 0.63,0.81 1.08,1.26 0.51,0.51 0.97,0.88 1.35,1.17 0.43,0.23 0.75,0.38 1.05,0.5 0.35,0.07 0.61,0.06 0.87,-0.04 0.28,-0.09 0.53,-0.29 0.76,-0.51 18.86,-18.87 37.73,-37.73 56.59,-56.59 z" /><path
       id="path32"
       style="fill:#c0c0c0;fill-opacity:0.50196001;fill-rule:evenodd;stroke:none"
       d="m 475.96,555.35 c 0.83,-0.54 1.42,-0.94 1.86,-1.32 0.41,-0.41 0.64,-0.82 0.72,-1.2 0.08,-0.38 -0.06,-0.79 -0.37,-1.19 -0.34,-0.44 -0.78,-0.96 -1.41,-1.59 -0.63,-0.63 -1.1,-1.11 -1.51,-1.42 -0.44,-0.35 -0.79,-0.53 -1.12,-0.57 -0.29,-0.11 -0.55,-0.1 -0.82,0 -0.28,0.09 -0.59,0.22 -0.96,0.41 -5.87,3.7 -11.79,7.33 -17.67,11.02 -5.37,-5.37 -10.74,-10.74 -16.11,-16.11 3.69,-5.77 7.3,-11.57 10.99,-17.34 0.22,-0.33 0.35,-0.65 0.44,-0.92 0.15,-0.32 0.13,-0.61 0.09,-0.92 -0.02,-0.4 -0.21,-0.76 -0.49,-1.13 -0.31,-0.41 -0.72,-0.9 -1.29,-1.47 -0.57,-0.57 -1.09,-1.01 -1.5,-1.31 -0.48,-0.31 -0.85,-0.41 -1.23,-0.33 -0.38,0.08 -0.79,0.31 -1.17,0.75 -0.41,0.41 -0.81,0.99 -1.36,1.83 -14.02,22.52 -27.73,45.23 -41.76,67.76 -0.23,0.41 -0.4,0.77 -0.49,1.15 -0.11,0.35 -0.06,0.66 0.07,1.07 0.1,0.38 0.35,0.79 0.68,1.23 0.35,0.44 0.83,0.92 1.43,1.52 0.62,0.62 1.16,1.16 1.63,1.54 0.47,0.36 0.88,0.61 1.29,0.74 0.41,0.13 0.73,0.18 1.1,0.1 0.38,-0.08 0.79,-0.3 1.19,-0.54 22.53,-14.02 45.24,-27.74 67.77,-41.76 z m -65.02,31.66 c -0.01,-0.01 -0.03,-0.02 -0.04,-0.04 7.63,-11.99 15.09,-24.07 22.72,-36.06 4.49,4.49 8.98,8.98 13.47,13.48 -12.02,7.59 -24.14,15.02 -36.15,22.62 z" /><path
       id="path34"
       style="fill:#c0c0c0;fill-opacity:0.50196001;fill-rule:evenodd;stroke:none"
       d="m 501.88,582.55 c 0.59,-0.59 1.06,-1.12 1.44,-1.56 0.38,-0.44 0.69,-0.87 0.87,-1.23 0.23,-0.41 0.29,-0.71 0.31,-0.97 0,-0.29 -0.07,-0.53 -0.25,-0.7 -5.71,-5.71 -11.42,-11.42 -17.13,-17.13 -0.45,-0.45 -1.13,-0.69 -2.02,-0.56 -0.87,0.04 -1.9,0.64 -3.09,1.83 -18.19,18.19 -36.38,36.38 -54.58,54.58 -0.23,0.22 -0.42,0.49 -0.52,0.75 -0.09,0.28 -0.1,0.53 -0.03,0.88 0.12,0.3 0.3,0.66 0.53,1.08 0.29,0.38 0.66,0.85 1.14,1.32 0.51,0.51 0.98,0.89 1.35,1.17 0.42,0.23 0.75,0.39 1.05,0.5 0.35,0.07 0.6,0.06 0.88,-0.03 0.27,-0.1 0.53,-0.29 0.76,-0.52 16.99,-17 33.99,-33.99 50.98,-50.98 4.63,4.63 9.26,9.26 13.89,13.9 0.18,0.17 0.38,0.28 0.66,0.29 0.26,-0.02 0.61,-0.12 0.92,-0.26 0.37,-0.19 0.79,-0.49 1.23,-0.87 0.44,-0.38 1.02,-0.89 1.61,-1.49 z" /><g
       id="g36"><g
         clip-path="url(#clipPath42)"
         id="g38" /></g><g
       id="g44"><g
         clip-path="url(#clipPath50)"
         id="g46" /></g><g
       id="g52"><g
         clip-path="url(#clipPath58)"
         id="g54" /></g><g
       id="g60"><g
         clip-path="url(#clipPath66)"
         id="g62" /></g><g
       id="g68"><g
         clip-path="url(#clipPath74)"
         id="g70" /></g></g></svg>